<?xml version="1.0" encoding="utf-8"?>
<!-- Generator: Adobe Illustrator 25.1.0, SVG Export Plug-In . SVG Version: 6.00 Build 0)  -->
<svg version="1.1" id="Layer_1" xmlns="http://www.w3.org/2000/svg" xmlns:xlink="http://www.w3.org/1999/xlink" x="0px" y="0px"
	 viewBox="0 0 600 600" style="enable-background:new 0 0 600 600;" xml:space="preserve">
<style type="text/css">
	.st0{fill:#FFFFFF;}
	.st1{fill:#FFCE01;}
	.st2{fill:#422A79;}
	.st3{fill:#BE1E2D;}
	.st4{fill:#E14F4C;}
	.st5{fill:#F59890;}
	.st6{fill:#231F20;}
	.st7{fill:#736C5E;}
	.st8{fill:#FFFFFC;}
	.st9{fill:#F3BD5F;}
	.st10{fill:#F1E7DC;}
	.st11{fill:#6C544C;}
	.st12{fill:#B54E4F;}
	.st13{fill:#F29592;}
</style>
<g>
	<g>
		<path class="st0" d="M281.6,4.3c6.1-2.2,12.7-3.4,19.7-3.3c20.1,0.3,39.9,10.8,50.4,26.7c3.6,5.4,10,15,17.6,26.2
			c13,19.3,29.4,43.6,40.7,60.8c5.6,8.6,14.1,15,24,18.2c30.7,9.7,81.9,25.7,96,30.1c20.3,6.3,35.2,20.8,41,39.7
			c5.7,18.5,1.5,38.4-11.4,54.7c-10.3,13-43.9,55.2-63.5,80.1c-6.3,8-9.7,17.9-9.6,28.1c0.1,7.3,0.2,18.4,0.4,30.7
			c0.9,66,0.8,77.4-0.1,82.5c-2.5,17.1-11.9,31.4-26.6,40.4c-15.6,9.4-34.9,11.5-52,5.7l-2.5-0.8l-6.3-2.3
			c-19.7-7.4-61.8-23.1-88-32.8c-9.6-3.6-20.2-3.7-29.9-0.5L181,522.1c-17.5,5.9-38.1,2.2-53.9-9.7c-14.7-11.1-22.8-27.3-22-44.6
			c0.7-17,3-75.1,4.2-108.1c0.4-10-2.7-20-8.6-28.1c-19.7-27-54.7-74.6-63.8-86.9c-10.4-14-13-32.9-6.9-50.6
			c6.4-18.5,20.6-32.5,38.2-37.4l76.3-21.2c19.1-5.2,35.8-16.2,48.4-31.6c36-44,60-73.9,65.7-82C264.3,13.8,272.3,7.7,281.6,4.3z
			 M442.2,471.4c0.5-7.9-0.1-49.5-0.4-74.6c-0.2-12.4-0.3-23.5-0.4-31c-0.1-20.3,6.7-40.3,19.3-56.3c19.6-24.9,53.3-67.2,63.6-80.2
			c3.6-4.6,4.9-9.2,3.6-13.4c-1.4-4.5-5.6-8.1-11.5-10c-14.1-4.4-65.4-20.5-96.1-30.2c-19.7-6.2-36.8-19.2-48-36.4
			c-11.1-17-27.4-41.1-40.3-60.2c-7.7-11.4-14.2-21.1-17.9-26.6c-2-3.1-7.8-6.4-13.6-6.5c-4-0.1-5,1.4-5.4,2
			c-8.2,11.5-41.2,52.2-67.5,84.4c-18.5,22.6-43.2,38.6-71.2,46.4L80,200.1c-3.2,0.9-6.2,4.4-7.6,8.6c-0.5,1.4-1.8,6.1,0.5,9.2
			c9.2,12.3,44.3,60,64.1,87.2c11.8,16.2,18,36.2,17.2,56.3c-1.2,33.1-3.4,91.4-4.2,108.5c-0.1,3,2.5,5.5,4.1,6.7
			c3.8,2.9,9.2,4.2,12.5,3l100.3-33.8c19.4-6.5,40.7-6.2,59.9,0.9c26.2,9.7,68.4,25.5,88.1,32.9l6.5,2.3c5.3,1.9,11.1,1.3,15.3-1.2
			c3.2-1.9,4.9-4.6,5.4-8.5L442.2,471.4z"/>
		<path class="st1" d="M150.4,157.2c23.5-6.5,44.4-20.1,59.8-39c24-29.4,58.8-72.1,66.6-83.2c13.8-19.4,44.9-11.9,56.1,5.1
			c9.7,14.7,40.4,59.7,58.2,86.9c8.5,13,21.2,22.6,36,27.3c30.7,9.7,81.9,25.7,96.1,30.2c26.7,8.3,36.5,36.6,18.8,58.9
			c-10.3,13-44,55.3-63.6,80.1c-9.5,12-14.6,26.9-14.5,42.2c0.2,27.2,1.7,104.8,0.5,109.2c-3.2,25.6-30.4,35.6-50.1,28.2
			c-0.4-0.1-0.8-0.2-1.2-0.3c-15.4-5.8-64.8-24.2-94.1-35.1c-14.4-5.4-30.3-5.6-44.9-0.7c-31.4,10.5-85.8,28.9-100.3,33.8
			c-20.1,6.8-47.3-9-46.3-32c0.7-17,3-75.2,4.2-108.3c0.5-15.1-4-30-12.9-42.2c-19.8-27.1-54.8-74.7-64-87
			c-13.4-18.1-1.7-47.1,19.2-52.9C87.2,174.7,122.7,164.9,150.4,157.2z"/>
	</g>
	<g>
		<path class="st0" d="M438.8,599c-11.9,0-22.1-3.1-30.3-9.3c-6.3-4.8-10.9-11.1-13.5-18.4c-5.4,2-11.2,3-17.3,3
			c-8.3,0-15.9-1.9-22.8-5.5c-3.3-1.8-6.4-4-9.1-6.5c-2.4,1.9-5,3.6-7.7,5c-7.9,4.2-17,6.3-26.9,6.3h-24.4c-4.9,0-9.5-1.8-12.9-4.9
			l-7.6,17.8c-3,7.1-10,11.7-17.7,11.7h-17.1c-6.6,0-12.6-3.3-16.2-8.8c-3.1-4.7-3.9-10.4-2.3-15.8h-33.7c-1.5,0-2.9-0.2-4.3-0.5
			c-1.4,0.3-2.9,0.5-4.3,0.5h-15.9c-1.7,0-3.4-0.2-5.1-0.7c-3.5,0.9-7.1,1.4-10.9,1.4c-6,0-11.7-1.2-17-3.7c-3,1.9-6.6,2.9-10.2,2.9
			H75.1c-10.6,0-19.3-8.6-19.3-19.3v-65.1c0-10.6,8.6-19.3,19.3-19.3h15.9c10.6,0,19.3,8.6,19.3,19.3v5c2.1-2.1,4.4-3.9,6.9-5.5
			c6.6-4.1,13.9-6.2,21.8-6.2c3.8,0,7.5,0.5,10.9,1.4c1.6-0.4,3.3-0.7,5-0.7h15.9c1.5,0,3,0.2,4.4,0.5c1.4-0.3,2.9-0.5,4.4-0.5H219
			c0.5,0,1.1,0,1.7,0.1c0.6-0.1,1.1-0.1,1.7-0.1h17.7c4.4,0,8.6,1.5,11.9,4.1c3.3-2.6,7.5-4.1,11.9-4.1h4.6
			c2.5-7.8,9.8-13.3,18.3-13.3h24.4c10,0,19.1,2.1,27,6.3c6.1,3.2,11.2,7.5,15.4,12.7c0.5-0.3,1.1-0.6,1.6-0.9
			c6.9-3.6,14.5-5.5,22.7-5.5c8.2,0,15.9,1.8,22.7,5.5c2.1,1.1,4.1,2.4,6,3.9c1.4-1.2,2.9-2.2,4.4-3.2c6.6-4.1,13.9-6.2,21.8-6.2
			c3.8,0,7.5,0.5,10.9,1.4c1.6-0.4,3.3-0.7,5-0.7h15.9c4.5,0,8.9,1.6,12.3,4.5c6.6-3.5,14.1-5.2,22.2-5.2c8.2,0,15.8,1.8,22.5,5.5
			c7.1,3.8,12.8,9.4,16.8,16.5c3.8,6.8,5.8,14.6,5.8,23.1c0,2.2-0.1,4.5-0.4,6.8c-0.1,1.3-0.4,2.6-0.8,3.8c-0.1,1.2-0.3,2.5-0.6,3.7
			c-1.6,6.2-4.4,11.8-8.5,16.7c-4.1,5-9.3,8.9-15.3,11.6c-5.9,2.7-12.4,4-19.4,4c-6.4,0-12.5-1.1-18-3.4c-0.6,1.6-1.2,3.1-2,4.6
			c-3.6,7.3-9,13.1-16.1,17.4C456.2,596.9,448,599,438.8,599z"/>
		<g>
			<path class="st2" d="M90.9,542h20.8v12.2H75.1v-65.1h15.9V542z"/>
			<path class="st2" d="M119.1,514.3c2-4,4.7-7.1,8.2-9.3c3.5-2.2,7.3-3.2,11.6-3.2c3.6,0,6.8,0.7,9.6,2.2c2.7,1.5,4.9,3.4,6.4,5.8
				v-7.3h15.9v51.7h-15.9v-7.3c-1.5,2.4-3.7,4.4-6.4,5.8c-2.8,1.5-5.9,2.2-9.6,2.2c-4.2,0-8-1.1-11.5-3.3c-3.5-2.2-6.2-5.3-8.2-9.4
				c-2-4-3-8.7-3-14C116.1,522.9,117.1,518.3,119.1,514.3z M151.6,519c-2.2-2.3-4.9-3.4-8-3.4c-3.2,0-5.8,1.1-8,3.4
				c-2.2,2.3-3.3,5.4-3.3,9.3c0,4,1.1,7.1,3.3,9.4c2.2,2.3,4.9,3.5,8,3.5c3.2,0,5.8-1.1,8-3.4c2.2-2.3,3.3-5.4,3.3-9.4
				C154.9,524.4,153.8,521.3,151.6,519z"/>
			<path class="st2" d="M197.1,541.1h22.4v13.1h-40.1v-12.6l21.5-26h-21.3v-13.1H219v12.6L197.1,541.1z"/>
			<path class="st2" d="M281,502.5l-32.4,76.3h-17.1l11.9-26.3l-21-50h17.7l12,32.4l11.9-32.4H281z"/>
			<path class="st2" d="M329.2,493.2c5.1,2.7,9.1,6.5,11.9,11.4c2.8,4.9,4.2,10.6,4.2,17c0,6.4-1.4,12-4.2,17
				c-2.8,4.9-6.8,8.8-12,11.5c-5.2,2.7-11.1,4.1-17.9,4.1h-24.4v-65.1h24.4C318,489.1,324,490.5,329.2,493.2z M324.1,535.6
				c3.3-3.3,5-7.9,5-13.9c0-6-1.7-10.7-5-14c-3.3-3.3-8-5-14-5h-7.5v37.8h7.5C316.1,540.5,320.8,538.8,324.1,535.6z"/>
			<path class="st2" d="M364.1,551.7c-4-2.2-7.2-5.3-9.5-9.3c-2.3-4-3.5-8.7-3.5-14.1c0-5.3,1.2-10,3.5-14c2.3-4,5.6-7.2,9.6-9.3
				c4.1-2.2,8.7-3.2,13.7-3.2c5.1,0,9.6,1.1,13.7,3.2c4.1,2.2,7.3,5.3,9.6,9.3c2.3,4,3.5,8.7,3.5,14c0,5.3-1.2,10-3.6,14
				c-2.4,4-5.6,7.2-9.7,9.3c-4.1,2.2-8.7,3.2-13.8,3.2C372.7,554.9,368.1,553.9,364.1,551.7z M385.5,537.9c2.1-2.2,3.2-5.4,3.2-9.5
				c0-4.1-1-7.3-3.1-9.5c-2.1-2.2-4.6-3.3-7.6-3.3c-3.1,0-5.7,1.1-7.7,3.3c-2,2.2-3.1,5.4-3.1,9.6c0,4.1,1,7.3,3,9.5
				c2,2.2,4.5,3.3,7.6,3.3C380.8,541.2,383.3,540.1,385.5,537.9z"/>
			<path class="st2" d="M442.5,504c2.7,1.5,4.9,3.4,6.4,5.8v-7.3h15.9v51.6c0,4.8-0.9,9.1-2.8,12.9c-1.9,3.9-4.8,6.9-8.6,9.2
				c-3.9,2.3-8.7,3.4-14.4,3.4c-7.7,0-13.9-1.8-18.6-5.4c-4.8-3.6-7.5-8.5-8.2-14.7h15.7c0.5,2,1.7,3.5,3.5,4.7
				c1.9,1.1,4.1,1.7,6.9,1.7c3.3,0,5.9-0.9,7.8-2.8c1.9-1.9,2.9-4.9,2.9-9v-7.3c-1.5,2.4-3.7,4.4-6.4,5.9c-2.7,1.5-5.9,2.3-9.5,2.3
				c-4.3,0-8.1-1.1-11.6-3.3c-3.5-2.2-6.2-5.3-8.2-9.4c-2-4-3-8.7-3-14c0-5.3,1-10,3-14c2-4,4.7-7.1,8.2-9.3
				c3.5-2.2,7.3-3.2,11.6-3.2C436.5,501.7,439.7,502.5,442.5,504z M445.5,519c-2.2-2.3-4.9-3.4-8-3.4c-3.2,0-5.8,1.1-8,3.4
				c-2.2,2.3-3.3,5.4-3.3,9.3c0,4,1.1,7.1,3.3,9.4c2.2,2.3,4.9,3.5,8,3.5c3.2,0,5.8-1.1,8-3.4c2.2-2.3,3.3-5.4,3.3-9.4
				C448.8,524.4,447.7,521.3,445.5,519z"/>
			<path class="st2" d="M524.7,532.1h-35.9c0.2,3.2,1.3,5.7,3.1,7.4c1.8,1.7,4.1,2.5,6.7,2.5c4,0,6.7-1.7,8.3-5h16.9
				c-0.9,3.4-2.4,6.5-4.7,9.2c-2.3,2.7-5.1,4.9-8.5,6.4c-3.4,1.5-7.2,2.3-11.4,2.3c-5.1,0-9.6-1.1-13.5-3.2c-4-2.2-7-5.3-9.3-9.3
				c-2.2-4-3.3-8.7-3.3-14.1c0-5.4,1.1-10.1,3.3-14.1c2.2-4,5.3-7.1,9.2-9.3c4-2.2,8.5-3.2,13.6-3.2c5,0,9.5,1.1,13.3,3.2
				c3.9,2.1,6.9,5.1,9.1,9c2.2,3.9,3.3,8.4,3.3,13.6C524.9,529,524.8,530.5,524.7,532.1z M508.7,523.3c0-2.7-0.9-4.9-2.8-6.5
				c-1.9-1.6-4.2-2.4-7-2.4c-2.7,0-4.9,0.8-6.7,2.3c-1.8,1.5-3,3.7-3.4,6.6H508.7z"/>
		</g>
	</g>
	<g>
		<g>
			<path class="st3" d="M409.4,369.6c-29.8,14.9-99.7,27.1-109.4,28.7c-9.7-1.6-79.7-13.8-109.4-28.7
				c-29.5,12.1-40.7,64.5-40.7,64.5s121,27.5,150.1-33.2c29.2,60.7,150.1,33.2,150.1,33.2S438.9,381.7,409.4,369.6z"/>
			<path class="st3" d="M335.9,406.5c-3.7,6.5-8.6,12.4-14.3,17.5c6.2,38.3,60.2,58.7,60.2,58.7S391.9,430,335.9,406.5z"/>
			<path class="st3" d="M271.1,420.9c-3.6-3.4-6.6-7.1-9-11.1c-50.9,24.4-41.4,74.2-41.4,74.2s50.8-19.2,59.5-55.3
				C277,426.5,273.9,423.9,271.1,420.9z"/>
			<path class="st4" d="M262.1,409.8c-50.9,24.4-41.4,74.2-41.4,74.2S264.5,413.8,262.1,409.8z"/>
			<path class="st4" d="M340.5,409.8c50.9,24.4,41.4,74.2,41.4,74.2S338.1,413.8,340.5,409.8z"/>
			<path class="st3" d="M332.9,403.6c0,15.2-14.7,27.4-32.9,27.4c-18.2,0-32.9-12.3-32.9-27.4C267.1,388.5,332.9,388.5,332.9,403.6z
				"/>
			<path class="st5" d="M264.6,439c0,6.7-5.5,12.2-12.2,12.2c-6.7,0-12.2-5.5-12.2-12.2c0-6.7,5.5-12.2,12.2-12.2
				C259.1,426.8,264.6,432.3,264.6,439z M349.3,428.8c-6.7,0-12.2,5.5-12.2,12.2c0,6.7,5.5,12.2,12.2,12.2c6.7,0,12.2-5.5,12.2-12.2
				C361.5,434.2,356.1,428.8,349.3,428.8z M376.9,390.2c-6.7,0-12.2,5.5-12.2,12.2c0,6.7,5.5,12.2,12.2,12.2
				c6.8,0,12.2-5.5,12.2-12.2C389.2,395.7,383.7,390.2,376.9,390.2z M421.5,411.5c-6.7,0-12.2,5.5-12.2,12.2
				c0,6.8,5.5,12.2,12.2,12.2c6.8,0,12.2-5.5,12.2-12.2C433.7,417,428.2,411.5,421.5,411.5z M422.1,376c-6.7,0-12.2,5.5-12.2,12.2
				c0,6.7,5.5,12.2,12.2,12.2c6.8,0,12.2-5.5,12.2-12.2C434.4,381.5,428.9,376,422.1,376z M207.1,402.5c0,6.7,5.5,12.2,12.2,12.2
				c6.7,0,12.2-5.5,12.2-12.2c0-6.7-5.5-12.2-12.2-12.2C212.6,390.2,207.1,395.7,207.1,402.5z M162.6,423.8
				c0,6.8,5.5,12.2,12.2,12.2c6.7,0,12.2-5.5,12.2-12.2c0-6.7-5.5-12.2-12.2-12.2C168.1,411.5,162.6,417,162.6,423.8z M161.9,388.2
				c0,6.7,5.5,12.2,12.2,12.2c6.7,0,12.2-5.5,12.2-12.2c0-6.7-5.5-12.2-12.2-12.2C167.4,376,161.9,381.5,161.9,388.2z M299.7,431.3
				c6.8,0,12.2-5.5,12.2-12.2c0-6.7-5.5-12.2-12.2-12.2c-6.7,0-12.2,5.5-12.2,12.2C287.5,425.8,292.9,431.3,299.7,431.3z"/>
			<path class="st6" d="M460.1,440.5c-2.6-10.1-11.5-65.1-51-80.2c-23.4,11.3-61.9,21.2-90,25.9c-9.8-2.2-19.1-2.5-19.1-2.5
				s-8,0.7-17.1,2.8c-25.9-5-70.3-14.5-92-26.3c-39.4,15-48.4,70.2-51,80.2c5.3,0.9,36.9,8.9,72.2,8.6c-6.1,20.1-0.9,37.9-0.3,45
				c25.5-8.9,58.2-25.8,71.7-57.7c10,4,23.1,4,33.1,0c13.5,31.8,46.2,48.7,71.7,57.7c0.5-7,5.8-25-0.4-45.3c1.1,0,2.3,0.1,3.4,0.1
				C432.1,448,445.5,443.5,460.1,440.5z M160.3,427.6c4.6-15.4,14.8-39.8,30.3-48.6c17.7,7.9,44.8,14.9,67.8,19.9
				c-0.3,0.4-0.6,0.9-0.9,1.3c-18.3,9.8-29.9,20.7-37.1,31.5C196.1,432.9,172.5,429.7,160.3,427.6z M225.9,469.9
				c0.7-14.1,6.6-38,35.8-52.9c1.7,3.7,4.1,7.1,7.1,10.1C262.6,448,239.7,462.7,225.9,469.9z M300,422.6c-12.9,0-23.6-7.8-24.4-17.7
				c2.6-1.7,11.2-4.2,24.4-4.2s21.8,2.5,24.4,4.2C323.6,414.8,312.9,422.6,300,422.6z M331.2,427c3-3,5.4-6.4,7.1-10.1
				c29.2,14.8,35.1,38.8,35.8,52.9C360.3,462.7,337.4,448,331.2,427z M340.6,399.3c0-0.1-0.1-0.2-0.1-0.3c23.2-5,50.9-12,68.9-20.1
				c15.5,8.8,25.7,33.2,30.3,48.6c-12.2,2.1-35.8,5.3-60,4.1C372.2,420.4,360,409.2,340.6,399.3z"/>
		</g>
		<g>
			<g>
				<path class="st7" d="M473.2,149.4c2.8-8.9,19.9-118.4-22.2-122.1c-21.5,3.6-72.6,14-98.7,35.4c-34.1-8.4-70.7-8.4-104.7,0
					c-26.1-21.4-77.2-31.8-98.7-35.4c-43.1,2.2-25.9,123.3-22.4,122.5C61.9,294.7,140.6,396,300,393
					C459.4,396.1,538.3,294.4,473.2,149.4z"/>
				<path class="st8" d="M379.9,226.7c-18.8-23.6-31.6-43-50.4-52.7c-17.9-9.8-41.2-9.8-59,0c-18.8,9.7-31.6,29.1-50.4,52.7
					c-23.7,29.8-79.4,36.7-113.4-3.4c-1.5,11.4-2.2,22.3-2.2,31.1c0,95.2,87.6,138.2,195.6,138.2s195.6-43,195.6-138.2
					c0-8.8-0.8-19.7-2.2-31.1C459.3,263.3,403.6,256.5,379.9,226.7z"/>
				<path class="st9" d="M348.8,188.7c-6-6.1-12.3-11.1-19.3-14.8c-17.9-9.8-41.2-9.8-59,0c-7.1,3.7-13.3,8.7-19.3,14.8
					c6,6.1,12.3,11.1,19.3,14.8c17.9,9.8,41.2,9.8,59,0C336.6,199.9,342.8,194.8,348.8,188.7z"/>
				<path class="st10" d="M300,354.6c-101.1,0-184.3-37.7-194.5-120.6c-0.7,7.4-1.1,14.4-1.1,20.4c0,95.2,87.6,138.2,195.6,138.2
					s195.6-43,195.6-138.2c0-6-0.4-13-1.1-20.4C484.3,316.9,401.1,354.6,300,354.6z"/>
				<g>
					<path class="st6" d="M332.6,185.1c0,14.7-14.6,26.5-32.6,26.5s-32.6-11.9-32.6-26.5C267.4,170.4,332.6,170.4,332.6,185.1z"/>
					<path class="st11" d="M322.3,182.1c0,6-10,10.9-22.3,10.9s-22.3-4.9-22.3-10.9C277.7,176.1,322.3,176.1,322.3,182.1z"/>
				</g>
				<g>
					<g>
						<path class="st9" d="M258.9,103.4c3.3,7.3-3.1,17.3-14.3,22.3c-11.2,5-22.9,3.2-26.2-4.1c-3.3-7.3,3.1-17.3,14.3-22.3
							C243.9,94.3,255.6,96.1,258.9,103.4z"/>
						<path class="st9" d="M341.1,103.4c-3.3,7.3,3.1,17.3,14.3,22.3c11.2,5,22.9,3.2,26.2-4.1c3.3-7.3-3.1-17.3-14.3-22.3
							C356.1,94.3,344.3,96.1,341.1,103.4z"/>
					</g>
				</g>
				<g>
					<g>
						<path class="st6" d="M204.2,166.7c0-10,10.1-15.6,22.5-17.2c12.4-1.6,22.5,1.5,22.5,11.4s-10.1,19.3-22.5,20.9
							S204.2,176.7,204.2,166.7z"/>
						<path class="st0" d="M240.1,159.9c-0.3,3.1-3.6,4.4-7.4,4.3c-3.8,0-6.8-1.4-6.5-4.5s3.7-5.5,7.5-5.5
							C237.6,154.3,240.4,156.8,240.1,159.9z"/>
					</g>
					<g>
						<path class="st6" d="M395.8,166.7c0-10-10.1-15.6-22.5-17.2c-12.4-1.6-22.5,1.5-22.5,11.4s10.1,19.3,22.5,20.9
							C385.8,183.5,395.8,176.7,395.8,166.7z"/>
						<path class="st0" d="M373.4,159.9c0.3,3.1,3.6,4.4,7.4,4.3c3.8,0,6.8-1.4,6.5-4.5s-3.7-5.5-7.5-5.5
							C376,154.3,373.1,156.8,373.4,159.9z"/>
					</g>
				</g>
				<g>
					<path class="st9" d="M152,97.9l37.6-19.4l-21.7-6.8c0,0,25.8-11.1,48.4,1.5c-25.8-18.2-66.9-28.9-71.4-21.3
						s-16.7,33.4-1.5,85.1c0,0,10.7-17.7,27.7-34.8L152,97.9z"/>
					<path class="st9" d="M448,97.9l-37.6-19.4l21.7-6.8c0,0-25.8-11.1-48.4,1.5c25.8-18.2,66.9-28.9,71.4-21.3
						c4.6,7.6,16.7,33.4,1.5,85.1c0,0-10.7-17.7-27.7-34.8L448,97.9z"/>
				</g>
				<path class="st6" d="M310.2,223.1C310.2,223,310.3,223,310.2,223.1L310.2,223.1z"/>
				<g>
					<path class="st12" d="M300,263.7c-15.5,0-28.5-10.2-32-24c13.3-0.5,24.9-9.6,32-20.4c7.4,10.9,18.2,19.5,32,20.5
						C328.4,253.5,315.5,263.7,300,263.7z"/>
					<path class="st13" d="M327.2,250c-7.3-6-16.8-9.7-27.2-9.7c-10.4,0-19.9,3.7-27.2,9.7c5.9,8.3,15.9,13.8,27.2,13.8
						C311.3,263.7,321.2,258.3,327.2,250z"/>
				</g>
				<path class="st6" d="M352.3,205.2c-3.3,0-6.6,2.9-6.4,6.4c0.2,3.1-2.9,9-3,9.1c0-0.1,0.1-0.1,0.1-0.1c-8.1,10.6-24,7.6-30.9-2.8
					c-4.1-4.1-4.7-13.6-12.1-12.5c-7.3-1.1-7.9,8-11.8,12.1c-0.6,0.9-1.3,1.6-2.1,2.5c-8.5,10.4-23.1,8.8-29,0.8
					c-1.9-2.6-3.3-5.8-3-9.1c-0.1-8.3-12.7-8.4-12.8,0c-0.6,12.5,9.2,24,21,27.2c6.4,41.8,68.8,41.9,75.4,0.1
					c11.7-3.5,21.7-14.6,21-27.3C358.6,208.2,355.9,205.2,352.3,205.2z M282.8,223.1C282.9,223,282.9,223,282.8,223.1L282.8,223.1z
					 M300,260.3c-13.1,0-24-8.6-27-20.3c11.2-0.4,21.1-8.1,27-17.2c6.2,9.2,15.4,16.4,27,17.3C324,251.6,313,260.3,300,260.3z"/>
			</g>
			<g>
				<path class="st6" d="M300,401.1c-166.4,3.2-248.7-102.7-181.2-254c-3.6,0.8-21.6-125.7,23.4-128c22.4,3.7,75.8,14.6,103.1,36.9
					c35.6-8.8,73.8-8.8,109.4,0c27.3-22.4,80.7-33.2,103.1-36.9c43.9,3.9,26,118.2,23.1,127.6C548.9,298.1,466.5,404.4,300,401.1z
					 M135.6,143.7l3,3.7C75.7,266.7,124.4,389.2,300,384c175.5,5.1,224.4-117.4,161.4-236.6c8.1-12.6,15.3-68.6-1.4-111.3
					c-19.1,3.2-78.6,14.6-100.7,38.9c-38.4-11.1-80.3-11.1-118.7,0C218.6,50.7,159,39.3,139.9,36.1
					C118.9,87,133.6,137.6,135.6,143.7z"/>
			</g>
		</g>
	</g>
</g>
</svg>
