<svg xmlns="http://www.w3.org/2000/svg" xmlns:xlink="http://www.w3.org/1999/xlink" viewBox="0 0 129.7 139.05"><defs><style>.cls-1,.cls-10,.cls-11,.cls-13,.cls-15,.cls-6,.cls-8{fill:none;}.cls-2{fill:#fae480;}.cls-3{fill:#f7da6b;}.cls-4{clip-path:url(#clip-path);}.cls-5{fill:#f9aa5d;}.cls-12,.cls-5,.cls-7,.cls-9{fill-rule:evenodd;}.cls-10,.cls-11,.cls-13,.cls-15,.cls-6,.cls-8{stroke:#6b3632;}.cls-11,.cls-6{stroke-miterlimit:22.93;}.cls-13,.cls-6{stroke-width:1.85px;}.cls-7{fill:#fff;}.cls-10,.cls-13,.cls-15,.cls-8{stroke-linecap:round;stroke-linejoin:round;}.cls-8{stroke-width:2.4px;}.cls-9{fill:#f7d3a1;}.cls-10{stroke-width:2.22px;}.cls-11{stroke-width:2.77px;}.cls-12{fill:#6b3632;}.cls-14{clip-path:url(#clip-path-2);}.cls-15{stroke-width:2.22px;}</style><clipPath id="clip-path" transform="translate(0 -1.39)"><path class="cls-1" d="M117.85,68.24c-1.09,29.43-23.44,54.41-54.52,53.07C30.58,119.89,11.6,97.72,11.39,68.42c-.23-32.6,26.23-53.3,54.32-53.28C93.33,15.16,118.12,40.71,117.85,68.24Z"/></clipPath><clipPath id="clip-path-2" transform="translate(0 -1.39)"><rect class="cls-1" x="51.7" width="76.26" height="57.75"/></clipPath></defs><g id="Layer_2" data-name="Layer 2"><g id="Layer_1-2" data-name="Layer 1"><path class="cls-2" d="M0,66.23a64.75,64.75,0,0,0,50.89,63.35c.82.18,1.63.34,2.46.49a65.94,65.94,0,0,0,11.5,1A64.83,64.83,0,0,0,122.7,36.9c-.67-1.32-1.39-2.62-2.14-3.88a65.05,65.05,0,0,0-6.62-9.16h0A64.84,64.84,0,0,0,0,66.23" transform="translate(0 -1.39)"/><path class="cls-3" d="M.91,77.15a65,65,0,0,0,50,52.43,1.55,1.55,0,0,0-.31-.53H50c-.7,0-1.27-.11-1.37-.73,1.13-.7,3.15-.35,3.26-1.69.08-.92-.73-1.44-1.39-2.11a2.34,2.34,0,0,1-.78-1.38c-.38-.22-1-.21-1.33-.47.45-1,1-1.33,1.51-1.33,1.55,0,3.4,2.78,4.89,3h0a1.52,1.52,0,0,0,.92-.43,1.43,1.43,0,0,1,.83-.43,1.35,1.35,0,0,1,.76.29,2,2,0,0,1,0,1.32c1.25,1,3.33,1.16,4.45,2.3-.31.77-1.06.94-2,.94-.71,0-1.51-.09-2.34-.11-1.08,0-1.39-1.13-2.16-1.31a4.56,4.56,0,0,0-1-.13c-1.51,0-3,.75-2.94,2.06.36.71,2,.13,2,1.2a.43.43,0,0,0,0,0,65.94,65.94,0,0,0,11.5,1,64.77,64.77,0,0,0,53.25-27.83c0-.08.07-.16.1-.23a1.06,1.06,0,0,1-.24,0,.57.57,0,0,1-.6-.49,4.09,4.09,0,0,1,2.53-4.46c.4-2.26,3-3.43,3.49-5.67.31-1.42-.38-2.77.12-4.46.26-.14.4-.42.73-.48a.78.78,0,0,1,.22,0,2.12,2.12,0,0,1,.44.06c.12,0,.24,0,.34,0a.68.68,0,0,0,.31-.08c.59-1.57.86-3.45,2-4.48a65.33,65.33,0,0,0-.18-34.21,4.33,4.33,0,0,0-1.42-1.09A17.74,17.74,0,0,0,123.13,41c.66-1.43-.21-2.53-.43-4.05-.67-1.32-1.39-2.62-2.14-3.88a4.27,4.27,0,0,1-.81-.75c-.28-.42-.35-.94-.59-1.32-.68-1.07-1.87-1.5-2.29-2.41a3,3,0,0,1-2.29-1.68c1.53-1.15-.84-1.92-.64-3A64.87,64.87,0,0,0,10.06,31.52a2,2,0,0,0,.4,2.08,12.8,12.8,0,0,0,3.24-2.28c.42-.42.62-1.07,1.1-1.45s1.12-.48,1.56-.85.77-1.22,1.32-1.8a5.92,5.92,0,0,1,4.06-2l.4,0c0,1-1,1.12-1.55,1.58-.73.55-1.17,1.29-2.18,1.68a9.78,9.78,0,0,0-1.58.36c-1,.62-.63,2.19-.83,3.38-.31,1.9-1.92,3.17-3.38,4-.82,1.4.2,2.68.72,3.75-.3.83-1.11,1.85-.48,2.93h.06c.75,0,.95-.62,1.63-.64a1.42,1.42,0,0,1,.68.21,1.58,1.58,0,0,0,.66.23.61.61,0,0,0,.47-.23c.1-.76-1.13-.79-1.33-1.56A1.47,1.47,0,0,1,16,39c.34.18.18.87.7.87h0a3.82,3.82,0,0,0,1.33-1.35c.19-1.93.2-4,1.08-5.2.48-.62,1.17-.79,1.69-1.21s1.16-1.5,1.93-1.68h.08a1.69,1.69,0,0,1,.7.2,2,2,0,0,0,.69.2l.21,0c.86-1,1.37-2,2.17-3a22,22,0,0,1,1.69-1.56c.6-.6.95-1.58,1.8-1.8a6.44,6.44,0,0,1,1.46-.09h.35A2.79,2.79,0,0,0,34,23.73a4.22,4.22,0,0,1-.11-1.46,2.68,2.68,0,0,1,2-1.15A1.06,1.06,0,0,1,37,22c0,.58-.56.64-.48,1.31H37c.64,0,1.26.08,1.87.14a14.43,14.43,0,0,0,1.86.15,5.29,5.29,0,0,0,.79,0c1.56,2.12,4.13,3.27,7.1,4A2.14,2.14,0,0,0,48.9,29a5.63,5.63,0,0,1,3.85,1.82c-.25.62-.43,1.73.36,1.91a5.86,5.86,0,0,0,1.22-5.06c.31-.63.92-1,1-1.93,1.32-2.28,6.4-.82,7.84-3-.32-1.62-2.25-1.62-2.78-3,.82-.62,2.24-.65,2.41-1.93-.26-.7-1.5-.43-1.58-1.33a1.26,1.26,0,0,1,.42-.06,3.5,3.5,0,0,1,.64.08,5,5,0,0,0,.69.07,1.62,1.62,0,0,0,.55-.09c0,.59-.52.62-.35,1.33.95.22,1.66.65,2.64.85.61-.27.89-.89,1.79-.89a3,3,0,0,1,.39,0c.4.38.27,1.33.72,1.68a2,2,0,0,0,.52.08c.94,0,1.6-.73,2.37-1,.13-.86-.82-.64-.61-1.58.6-.8,2.46-.34,3.37-.83A6.82,6.82,0,0,0,77,18.77c-.92,1-.31,2.87-1.58,3.62a6.62,6.62,0,0,0-3-.75c-.46-.24-.39-1-1.06-1h0c-.34,1.45.39,2.76.62,4,2.63,1,5.87,1.39,6.38,4.49.38.33,1.29.16,1.44.73s-.3.82-.24,1.45c.3.73,1.34.73,1.08,2a12.22,12.22,0,0,0,1.82,1.1,5.76,5.76,0,0,0,1-2.3,3.49,3.49,0,0,0,1.46-.6,5.14,5.14,0,0,1-.25-1.93,1.73,1.73,0,0,1,1-.38c1,0,1.9,1.13,2.1,2.08.6,0,1.22-.11,1.78-.11,1.26,0,2.16.33,1.61,2,.36.77,1.12.66,1.8,1.22s1,1.72,1.81,1.93a2.09,2.09,0,0,0,.35,0,4.29,4.29,0,0,0,.71-.08,3.46,3.46,0,0,1,.78-.09h.21c.35,0,.76.4,1.19.47a3.27,3.27,0,0,0,.44,0,4,4,0,0,0,.49,0c.18,0,.34,0,.48,0a.88.88,0,0,1,.29,0c.61.26.7,1,1.2,1.57a49.43,49.43,0,0,1,6,1.82c.63.22,1.1.79,1.7,1a.65.65,0,0,0,.2,0l.32,0,.34,0a.78.78,0,0,1,.22,0c.58.21.81.73,1.45.73.46,0,.88-.46,1.33-.61a8.83,8.83,0,0,0,2.16-.71c.66.13.59,1,1.33,1.07.51-2.36-.94-3.79-1.81-5.17.61-.77.23-1.88.11-2.9a2,2,0,0,1,1.45-.85c.2.34.08,1,.37,1.22.78.27,2.06.34,2.29,1.33.14.62-.42,1.38-.48,2a6.32,6.32,0,0,0,.56,3.36,3.12,3.12,0,0,0,2.33,1.83c.07.44.33.71.24,1.33-.59.26-1.28.39-1.93.6,0,1-.61,1.22-1,1.8a2.89,2.89,0,0,0,1.8,1.81c.46-.25.54-.9,1-1.2,1.08.39,3.22.65,2.28,2.29a.86.86,0,0,1-.43.11,1.69,1.69,0,0,1-.49-.09,2,2,0,0,0-.47-.09.52.52,0,0,0-.29.07c-.66.19-.33,1.35-1,1.56-1,.35-1.69,0-2.39.48-1,.78-.94,3.79-.37,4.7.69,1.14,2,.76,2.4,1.82-.39,1-1.3,3.07-.23,4.09.7-.61.82-1.83,1.33-2.66a5,5,0,0,1,1.56.48,3.8,3.8,0,0,0,1.32,2.43c1-1,.2-2.48.24-3.61a6,6,0,0,1,1.57.46,7.36,7.36,0,0,1,.61,4.95,3.77,3.77,0,0,0-1.78-.53,1.38,1.38,0,0,0-1.36.77c0,.72.68.79.72,1.45-.36.61-.42,1.5-1.2,1.7-.32-2.47-2.27-3.29-3.15-5.19-.7.88.23,1.63.37,2.4a2,2,0,0,1-1.92,1.32c.17,2.23-.23,5.1-2.26,5.1a3,3,0,0,1-.88-.14c0-1.59-2.4-2.26-2.64-3.62-.15-.79.49-1.67.84-2.53l.34,0a1.89,1.89,0,0,0,1.46-3.15c-.68.06-1.26.11-1.8.11A5.1,5.1,0,0,1,111,61c-.55.17-.51.93-1,1.2a3.13,3.13,0,0,0-1.68-.52,2.71,2.71,0,0,0-.47,0c-.5-.8-1.25-1.32-1.1-2.78a1.19,1.19,0,0,0-.63-.19c-.5,0-.93.35-1.53.44-.51-.35,0-1.28-.23-1.68-.67-.64-2.36-.21-3-.85.47-1.08.67-3-.9-3a1.05,1.05,0,0,0-.3,0c-.39-.55-.74-1.11-1.08-1.7,0-.4.63-.52.23-1H99a3.74,3.74,0,0,0-1.31.34,4.53,4.53,0,0,1-1.5.32,2.25,2.25,0,0,1-.44,0,1.84,1.84,0,0,0-1.71-.79,5.15,5.15,0,0,0-1.31.18c.27,2-.6,3.64-.36,5.19.07.4.49.86.6,1.33.45,1.67,1.07,2.61,1.33,4.09.12.63-.18,1.23.37,1.8a1.16,1.16,0,0,1,.74-.38c.45,0,.78.45,1.42.5h.21a6.32,6.32,0,0,0,1.79-.38,6.66,6.66,0,0,1,2-.4,3,3,0,0,1,.66.06,1.89,1.89,0,0,0,1.65.93,3.72,3.72,0,0,0,.77-.09,2.26,2.26,0,0,1,.37,2.53c1.05,2,1.53,4.57,3.84,5.3.33,1.29,1.49,3.55-.48,3.86-.81-.4-.34-1.5-.12-2.18a3.37,3.37,0,0,0-1.5-.4A2.44,2.44,0,0,0,105,73c-.58.28-.66,1.08-1.22,1.21l-.2,0a1.29,1.29,0,0,1-.59-.19,1.49,1.49,0,0,0-.63-.18,1,1,0,0,0-.39.09c.63,1,.39,2.18-.6,2.18-1.34,0-.92-1.51-.36-2.41a.91.91,0,0,0-.8-.39c-.31,0-.66.09-1.12.14-.35-.74-1.29-1.3-1.81-2a4.84,4.84,0,0,1-.85-2c0-.42.59-.58.72-1.22.09-.32-.08-.75,0-1,.23-.55,1.09-.81,1.09-1.44-1.29-.25-1.69-1.37-3.13-1.46-.56.43-.56,1.38-1.09,1.81-.64-.73-1.77-1.83-3-1.83l-.24,0c-.61.07-.79.74-1.46.74h-.11c-.49-.2-.43-.93-.6-1.45-.66-.74-1.49-.77-1.55-1.68-.12-1.21,1.06-1.16,1.06-2.06,0-.62-1.29-1.89-1.79-2a1.88,1.88,0,0,0-.46-.06,9.85,9.85,0,0,0-2.45.69h0a2.7,2.7,0,0,1-.89-.2,2.4,2.4,0,0,0-.85-.23.3.3,0,0,0-.13,0c-.59.08-1.21.85-1.81.85a.25.25,0,0,1-.12,0c-.61-.1-.31-.52-.85-1.2s-1.31-1.12-1.44-1.93a3.1,3.1,0,0,0-1.45-.11c-.31.31-.2,1.08-.6,1.33-.86-.23-.85-1.33-1.08-2.18a8.5,8.5,0,0,1-1.81-3.25c-1.14-.28-2.27-.3-2.18-1.46.08-.77.76-.57,1.09-1.31A4.89,4.89,0,0,0,70,46.86c-1.12.83.13,3.26-1.07,4.34h-.57a.77.77,0,0,0-.52.12c-1.34,1.36.75,2,.61,3.12-.1.8-1.28.83-1.81,1.22-.9.65-1.42,2.42-2.53,2.77a9.13,9.13,0,0,0-2.84-.52,4.26,4.26,0,0,0-.54,0c-1.43,2.38.59,5.27,1.57,7.11-1.8,1.53,1.84,3.13-.13,4.83a1.88,1.88,0,0,0-.71-.13,3.47,3.47,0,0,0-1.27.34,3.73,3.73,0,0,1-1.19.35H58.9a5.56,5.56,0,0,0-1.67-.55h0c-.73,0-1,.34-1.8.47A4,4,0,0,0,53.74,70a2.08,2.08,0,0,0-1.47.47,3,3,0,0,0,.11,1.09,1,1,0,0,0,.49.11,4.52,4.52,0,0,0,.49-.05,3.2,3.2,0,0,1,.51-.06.66.66,0,0,1,.57.24c.16,1.84-1.42,2-2.88,2.16-.49.8-1.33,1.26-1.69,2.18.88.94,2.06,1.62,3,2.53a1.49,1.49,0,0,1,.91-.32c.81,0,1.54.74,2.23,1.41,1,1,2,1.87,1.92,3.51h0c.93,0,.79-1.06,1.68-1.09.74.74,1.74,1.26,2,2A6.54,6.54,0,0,1,62,87c-.14,1.14-1.32,2-1.08,3.14.15.75,1.15,1.18,1.93,2,.3.34.4.78.6,1,.82.7,1.93.66,2.16,1.44.13.38-.13,1-.12,1.33.08,1,.75,2.1.12,3.13a7.74,7.74,0,0,0-3,2.3c.41,1.17.29,2.26-.73,2.52a1.12,1.12,0,0,1-.32,0,5,5,0,0,1-1-.13,6,6,0,0,0-1-.13,1.93,1.93,0,0,0-.6.09c-.54.22-.37.63-1,.85a.71.71,0,0,0-.2,0c-.8,0-1.2.62-2,.62h-.17a3.66,3.66,0,0,1-1.35-.32,4.09,4.09,0,0,0-1.39-.33,1.93,1.93,0,0,0-.47,0c0,1.25,1.22,1.28,1.09,2.66,1.3.25,1.93,1.2,1.69,3-.6.35-.79,1.06-1.58,1.21h-.1a1.58,1.58,0,0,1-.57-.13,1.5,1.5,0,0,0-.51-.15c-.16,0-.28.06-.38.28-.25.89,1.93.39,1.93,1.44a1,1,0,0,1-.51.12,1.78,1.78,0,0,1-.6-.12,2.23,2.23,0,0,0-.69-.14h-.13c-.65.11-1.1.67-1.68.73-.12,0-.22,0-.34,0-1.62,0-2.67-1.37-3.52-2.54,1.37,0,1.16-2.43,0-2.43h-.17c-1.12.23-.29,1.73-.36,2.42-.06.41-.53.8-.49,1.19.06.58.86.83.73,1.58-.75.57-2.32.32-3.14.84a1.89,1.89,0,0,0-1.39-.47,7.54,7.54,0,0,0-.81.06h-.14a7.63,7.63,0,0,1-.92.08,1.89,1.89,0,0,1-.83-.16c-.82-.38-.48-1.24-1.32-1.58a5.07,5.07,0,0,1-.66,0,3.35,3.35,0,0,1-3.56-2.68c-.8-.89-2.26-1.12-2.66-2.41.1-1.88-.17-3.79.85-5.43a2.15,2.15,0,0,0-1.67-.82,1.66,1.66,0,0,0-.62.11c-.45.62.6.62.36,1.45-.23.17-.3.49-.6.6-.45,0-.63-.27-1.07-.27-.08,0-.17,0-.26,0-.47.69.17,2-.6,2.57h-.12c-.85,0-1.08.57-1.58.94a6.76,6.76,0,0,1-1.55-.39,8,8,0,0,0-2.42-3.61.12.12,0,0,0-.08,0c-.37,0-.52.24-.87.25-4.09-1.42-6.34-4.69-9.29-7.24-.22-2-2.21-1.83-2.9-3.24-1.09-2.31-.86-4.49-2.28-6.77-.43-.69-1.33-1.08-1.7-1.8a13.78,13.78,0,0,0-.83-2.17c-.43-.58-1.09-.89-1.45-1.44-.63-.94-.8-2.13-1.35-3.09m61,2.32c-.81,0-2-1-1.54-1.89a5,5,0,0,1,2.29.62C62.72,79.13,62.36,79.47,61.89,79.47Zm1.9-1.13a1.9,1.9,0,0,1-.66-.14c.14-.84.4-1.11.65-1.11s.49.31.56.62A.5.5,0,0,1,63.79,78.34ZM44.68,15.76A5.47,5.47,0,0,1,43,18.06c-.82-.43-1.19-1.3-2.18-1.58-.87.15-1.12.8-1.81,1.1-1,.43-2.23.27-3.37.6A8.33,8.33,0,0,0,33,20c-.78.67-1.19,1.73-2.18,2.06a1.85,1.85,0,0,1-.55.06h-.52a2,2,0,0,0-.61.07c-.51.14-.76.76-1.33,1a2.84,2.84,0,0,1-.89.14A9.06,9.06,0,0,1,25.28,23c-.61-.95,0-1.56.95-2.29.55-.39,1-.91,1.58-1.21,1.93-1,4-1,5.06-2.39.83-.33,1.78,0,2.77-.34,1.24-.46,1.6-1.78,3.5-1.78h.23c.36,0,.72.3,1.22.33a2,2,0,0,0,.22,0,8.32,8.32,0,0,0,.94-.08,10.15,10.15,0,0,1,1.12-.09A2.47,2.47,0,0,1,44.68,15.76Zm18.56-4.58a2.4,2.4,0,0,0-.71-.12,3.52,3.52,0,0,0-2.16,1,3.38,3.38,0,0,1-2.07,1h-.25c-.5-.07-.93-.67-1.44-.73-.12,0-.25,0-.38,0a7.4,7.4,0,0,0-2,.39,6.81,6.81,0,0,1-2,.38,3.52,3.52,0,0,1-1-.13c-.23-.92.08-1.75,1-1.94h.14a1.29,1.29,0,0,1,.46.09,2.92,2.92,0,0,0,.44.06l.17,0c.77-.17,1.29-1.12,2.18-1.56a9.88,9.88,0,0,1,4.41-1.09,8.66,8.66,0,0,1,3.17.61A3.92,3.92,0,0,1,63.24,11.18ZM110.12,29c.24,1,.91,1.79.85,2.78-.09,1.49-2.31,3.32-3.26,3.49a2,2,0,0,1-.34,0c-1.16,0-2.45-.91-3.15-1.24-1.49-.7-3.09-1.17-3.62-2.28-.33-.7-.18-1.26-.48-1.7-1-1.47-4-2.43-3-4.94.18-.4.71-.48,1-.84.56-.84.61-2,1.33-2.53a3.18,3.18,0,0,0,1.55-.6,4.85,4.85,0,0,0,2.25,1c.52,0,1-.29,1.14-1.11a3.25,3.25,0,0,1,2.39,2.05c1.28.41,2.05,1.61,3,2.77S111.69,28.05,110.12,29Zm12.89,12c-.09.31-.28.58-.6.58h0c-.47,0-.36-.56-.57-.82a2.28,2.28,0,0,1-.53.11,1.33,1.33,0,0,1-1.16-.68,1.78,1.78,0,0,1-.17-.41c-.16-.54,0-1.09.51-1.09a1.58,1.58,0,0,1,.76.27c.39.26.52,1.12.71,1.33s.9.34,1.06.67A.05.05,0,0,1,123,41.06Zm2.66,23.58a1.82,1.82,0,0,1,.72.18c.16.6-.18.83-.57.83a1,1,0,0,1-.63-.23C125.09,64.82,125.35,64.64,125.67,64.64ZM109.2,66.29h.09c1.08,0,.91,1.46.83,2.75a.57.57,0,0,0,.3.07,1.3,1.3,0,0,0,.57-.22,1.39,1.39,0,0,1,.72-.22h.09a5.46,5.46,0,0,0,1.7,1.58c0,1-.54,1.33-1.33,1.46-.64-.64-1.07-1.69-2-2.17a.53.53,0,0,0-.22,0h-.12a.62.62,0,0,1-.38-.1C108.76,68.93,107.58,66.29,109.2,66.29ZM41,121.82c.22-.55.57-1.58,1.21-1.58a1,1,0,0,1,.6.26c.12.93-.57,1-.73,1.68,1.25.73,2.9.35,4,1.21.52.41.66,1.06,1.21,1.45a1.48,1.48,0,0,1,1.24-.64,1.46,1.46,0,0,1,.92.31,1.17,1.17,0,0,1,.36,1.28,1.15,1.15,0,0,1-.47.09,5.41,5.41,0,0,1-1.7-.57,3.4,3.4,0,0,1-1.67.42,6.42,6.42,0,0,1-3.27-1.14C42.15,123.59,42,122.29,41,121.82Zm-.13-6.38a1.44,1.44,0,0,1,.31,0,1.9,1.9,0,0,1,.34,0,2.76,2.76,0,0,1,2,.66h.34a2.13,2.13,0,0,0,1-.3,2.14,2.14,0,0,1,1.1-.31h0c-.2,1.11.58,1.68,1.33,2.25A1.66,1.66,0,0,1,47,119H45.41a5.17,5.17,0,0,1-1.33-.06c-.51.08-.29.85-.73,1.14h0a.42.42,0,0,1-.38-.24,3.26,3.26,0,0,1-.06-1.15A10.42,10.42,0,0,1,40.82,115.44ZM9.25,95.51h.06c.82,0,1.2.47,1.75.74,0,1.39,1,2.31.61,3.65h0C9.91,99.9,9,97.63,9.25,95.51Z" transform="translate(0 -1.39)"/><g class="cls-4"><path class="cls-5" d="M19.18,132.45c-1.83-2.5-4-6.52-2.1-9.58,3-4.8,13.43-11.07,16.52-16.65,1.69-3,3.29-6,4.42-8.2q1.06.63,2.16,1.23C40,109,30.8,117,25,123.35A36.75,36.75,0,0,0,19.18,132.45Z" transform="translate(0 -1.39)"/><path class="cls-6" d="M19.18,132.45c-1.83-2.5-4-6.52-2.1-9.58,3-4.8,13.43-11.07,16.52-16.65,1.69-3,3.29-6,4.42-8.2q1.06.63,2.16,1.23C40,109,30.8,117,25,123.35A36.75,36.75,0,0,0,19.18,132.45Z" transform="translate(0 -1.39)"/><path class="cls-7" d="M19.86,132.45c-1.71-2.34-3.74-6.1-2-9,1.38-2.22,4.47-4.78,7.59-7.43a21.19,21.19,0,0,1,4.16,3.27c-1.53,1.63-3,3.17-4.38,4.61a34.36,34.36,0,0,0-5.41,8.51" transform="translate(0 -1.39)"/><path class="cls-5" d="M106.71,75a1,1,0,0,1-.51-1.13s22.24-55.33,5.41-64.54c-2.88-1.11-10.28.18-14,7.9S83,53.43,77.46,50.37C72.25,47.5,66,44.53,53.2,44.85s-19,13.3-19,13.3c-17-.31-15.5,25.73-5.19,36.47C46.76,113.05,88.77,117.2,95.79,88c7.62.2,8.91,1.44,8.91,1.44s-1.38-5.31-3.26-6.21L108.29,86s-1.59-6.29-4.86-7.07c.38-.89,9.42.85,9.42.85A16.4,16.4,0,0,0,106.71,75Z" transform="translate(0 -1.39)"/><path class="cls-8" d="M106.71,75a1,1,0,0,1-.51-1.13s22.24-55.33,5.41-64.54c-2.88-1.11-10.28.18-14,7.9S83,53.43,77.46,50.37C72.25,47.5,66,44.53,53.2,44.85s-19,13.3-19,13.3c-17-.31-15.5,25.73-5.19,36.47C46.76,113.05,88.77,117.2,95.79,88c7.62.2,8.91,1.44,8.91,1.44s-1.38-5.31-3.26-6.21L108.29,86s-1.59-6.29-4.86-7.07c.38-.89,9.42.85,9.42.85A16.4,16.4,0,0,0,106.71,75Z" transform="translate(0 -1.39)"/><path class="cls-9" d="M89.52,47.31S103.59,14.84,107,15.23s5.63,7.55,5.48,10.58-2.61,27.4-9.82,41.64c-3.29.37-9.77-7.13-9.58-10.63s4.7-2.44,5.36-.79c0,0-1.17-4.29-2.93-4.49S99,48.3,99,48.3,93.68,44.47,89.52,47.31Z" transform="translate(0 -1.39)"/><path class="cls-10" d="M89.52,47.31S103.59,14.84,107,15.23s5.63,7.55,5.48,10.58-2.61,27.4-9.82,41.64c-3.29.37-9.77-7.13-9.58-10.63s4.7-2.44,5.36-.79c0,0-1.17-4.29-2.93-4.49S99,48.3,99,48.3,93.68,44.47,89.52,47.31Z" transform="translate(0 -1.39)"/><path class="cls-5" d="M54.34,44.83C58.59,36,74.25,4.44,81.45,5.4c7.92,1,1.9,24.38-6.89,43.45C70,46.64,64.18,44.73,54.34,44.83Z" transform="translate(0 -1.39)"/><path class="cls-11" d="M54.34,44.83C58.59,36,74.25,4.44,81.45,5.4c7.92,1,1.9,24.38-6.89,43.45C70,46.64,64.18,44.73,54.34,44.83Z" transform="translate(0 -1.39)"/><path class="cls-7" d="M80.64,106.28c3.47,5.26,10.14,17.61,7.82,32.17,0,.16-.07.31-.1.47H18.7c.84-3.33,3.37-12.17,7.67-17.26,4.47-5.27,11.51-12,11.63-20.11C50.69,109.14,68.05,111.74,80.64,106.28Z" transform="translate(0 -1.39)"/><path class="cls-11" d="M80.64,106.28c3.47,5.26,10.14,17.61,7.82,32.17,0,.16-.07.31-.1.47H18.7c.84-3.33,3.37-12.17,7.67-17.26,4.47-5.27,11.51-12,11.63-20.11C50.69,109.14,68.05,111.74,80.64,106.28Z" transform="translate(0 -1.39)"/><path class="cls-5" d="M22.42,139.83c-2-.44-3.18-.72-3.18-.72s2.61-11.23,8-17.06c4.46-4.85,11.51-11,11.63-18.48.38.21.76.42,1.15.62a26.45,26.45,0,0,1,.9,6c.17,6.66-5.46,11.68-10.51,16.47-4,3.8-6.94,10.53-8,13.14" transform="translate(0 -1.39)"/><path class="cls-7" d="M71.49,48.72a37.06,37.06,0,0,0-5-1.55c-9.56,3.23-12.22,7.42-13.6,9.21-1.58,2-2.12,6.51-10.18,6.9-3,.14-6.48-1.8-9.77-4.32-14.22,1.84-12.44,25.12-2.89,35C47,111.43,86.79,115.55,94.44,88.71,89.29,74.46,76.81,78.2,67.66,80.22c-9.95,2.19-14.54-4.08-15.49-15.06-.68-7.9,12.1-13.77,19.32-16.44" transform="translate(0 -1.39)"/><path class="cls-5" d="M37.37,61.58A32.5,32.5,0,0,1,33,58.82c-6.79.85-10,6.3-10.6,12.9a10.22,10.22,0,0,0,5,1.31,9.86,9.86,0,0,0,9.94-11.45" transform="translate(0 -1.39)"/><path class="cls-12" d="M26.82,53.68c-4.51,0-8.17,3.28-8.17,7.32s3.66,7.33,8.17,7.33S35,65.05,35,61s-3.65-7.32-8.16-7.32" transform="translate(0 -1.39)"/><path class="cls-5" d="M80.46,107.39c5.44,6,8.05,23.6,7.63,31.53H64.84c-1.22-4.34-4.3-14.17-7.75-17.52-3-2.92-2.38-8.19,1.16-11.45,7.8,1.28,15.66.59,22.21-2.56" transform="translate(0 -1.39)"/><path class="cls-10" d="M72.32,73.2s-1.93-9.86-13.67-6.56" transform="translate(0 -1.39)"/><path class="cls-10" d="M48.07,59.64s-1.22-6.23-8.64-4.14" transform="translate(0 -1.39)"/><path class="cls-5" d="M61.06,118.63c-2.74-3.66-6.81-7.88-7.84-11.67-.62-2.31,1-5.18,2.11-6.08,2.94-2.36,6.15-4.16,11.47.7C77.21,111.1,83.08,124,83.71,129.89c.08.77-2.22,3.16-2.15,4l-8-.11C69.15,128.09,64.19,122.83,61.06,118.63Z" transform="translate(0 -1.39)"/><path class="cls-10" d="M69.74,129.89c-3.45-4.42-6.89-8.86-8.68-11.26-2.74-3.66-6.81-7.88-7.84-11.67-.62-2.31,1-5.18,2.11-6.08,2.94-2.36,6.15-4.16,11.47.7s11.08,12.6,15.37,19.63" transform="translate(0 -1.39)"/><path class="cls-7" d="M61.9,117.91c-2.66-3.56-6.56-7.71-7.68-11.3a6,6,0,0,1,1.59-5.56c2.53-2.06,5.34-3.57,10.4,1.24A91.9,91.9,0,0,1,78,116.62,12.13,12.13,0,0,1,66.48,124c-2-2.63-3.63-4.82-4.58-6.1" transform="translate(0 -1.39)"/><path class="cls-13" d="M62.51,104.84s-2.72-4.31-4.6-5.68" transform="translate(0 -1.39)"/><path class="cls-13" d="M59.43,107.16s-3.39-3.8-4.2-6" transform="translate(0 -1.39)"/></g><g class="cls-14"><path class="cls-5" d="M19.25,132.59c-1.83-2.51-4-6.53-2.1-9.59,3-4.8,13.43-11.07,16.52-16.65,1.69-3,3.29-6,4.42-8.2q1.06.63,2.16,1.23c-.2,9.71-9.38,17.78-15.21,24.11A36.57,36.57,0,0,0,19.25,132.59Z" transform="translate(0 -1.39)"/><path class="cls-6" d="M19.25,132.59c-1.83-2.51-4-6.53-2.1-9.59,3-4.8,13.43-11.07,16.52-16.65,1.69-3,3.29-6,4.42-8.2q1.06.63,2.16,1.23c-.2,9.71-9.38,17.78-15.21,24.11A36.57,36.57,0,0,0,19.25,132.59Z" transform="translate(0 -1.39)"/><path class="cls-7" d="M19.93,132.59c-1.71-2.35-3.74-6.1-2-9,1.38-2.22,4.47-4.78,7.59-7.43a21.57,21.57,0,0,1,4.16,3.27c-1.53,1.64-3,3.18-4.38,4.62a34.18,34.18,0,0,0-5.41,8.51" transform="translate(0 -1.39)"/><path class="cls-5" d="M106.78,75.14a1.06,1.06,0,0,1-.51-1.14s22.24-55.32,5.41-64.53c-2.88-1.11-10.28.18-14,7.89S83.11,53.57,77.53,50.5C72.32,47.64,66.08,44.66,53.27,45s-19,13.3-19,13.3C17.29,58,18.82,84,29.13,94.75c17.7,18.44,59.71,22.58,66.73-6.67,7.62.21,8.91,1.44,8.91,1.44s-1.38-5.3-3.26-6.21l6.85,2.83s-1.59-6.3-4.86-7.07c.37-.9,9.42.84,9.42.84A16.32,16.32,0,0,0,106.78,75.14Z" transform="translate(0 -1.39)"/><path class="cls-8" d="M106.78,75.14a1.06,1.06,0,0,1-.51-1.14s22.24-55.32,5.41-64.53c-2.88-1.11-10.28.18-14,7.89S83.11,53.57,77.53,50.5C72.32,47.64,66.08,44.66,53.27,45s-19,13.3-19,13.3C17.29,58,18.82,84,29.13,94.75c17.7,18.44,59.71,22.58,66.73-6.67,7.62.21,8.91,1.44,8.91,1.44s-1.38-5.3-3.26-6.21l6.85,2.83s-1.59-6.3-4.86-7.07c.37-.9,9.42.84,9.42.84A16.32,16.32,0,0,0,106.78,75.14Z" transform="translate(0 -1.39)"/><path class="cls-9" d="M89.59,47.44S103.66,15,107.09,15.36s5.63,7.55,5.48,10.59S110,53.34,102.75,67.58C99.46,68,93,60.45,93.17,57s4.7-2.45,5.35-.79c0,0-1.16-4.3-2.92-4.49S99,48.43,99,48.43,93.75,44.6,89.59,47.44Z" transform="translate(0 -1.39)"/><path class="cls-10" d="M89.59,47.44S103.66,15,107.09,15.36s5.63,7.55,5.48,10.59S110,53.34,102.75,67.58C99.46,68,93,60.45,93.17,57s4.7-2.45,5.35-.79c0,0-1.16-4.3-2.92-4.49S99,48.43,99,48.43,93.75,44.6,89.59,47.44Z" transform="translate(0 -1.39)"/><path class="cls-5" d="M54.41,45C58.66,36.1,74.32,4.58,81.52,5.53c7.92,1,1.9,24.39-6.9,43.45C70.07,46.77,64.25,44.87,54.41,45Z" transform="translate(0 -1.39)"/><path class="cls-11" d="M54.41,45C58.66,36.1,74.32,4.58,81.52,5.53c7.92,1,1.9,24.39-6.9,43.45C70.07,46.77,64.25,44.87,54.41,45Z" transform="translate(0 -1.39)"/><path class="cls-7" d="M80.71,106.42c3.47,5.25,10.14,17.61,7.82,32.16,0,.16-.07.31-.1.47H18.77c.84-3.33,3.37-12.17,7.67-17.25,4.47-5.28,11.51-12,11.63-20.11C50.76,109.28,68.12,111.87,80.71,106.42Z" transform="translate(0 -1.39)"/><path class="cls-11" d="M80.71,106.42c3.47,5.25,10.14,17.61,7.82,32.16,0,.16-.07.31-.1.47H18.77c.84-3.33,3.37-12.17,7.67-17.25,4.47-5.28,11.51-12,11.63-20.11C50.76,109.28,68.12,111.87,80.71,106.42Z" transform="translate(0 -1.39)"/><path class="cls-5" d="M22.49,140c-2-.45-3.18-.73-3.18-.73s2.61-11.22,8-17.06c4.46-4.85,11.51-11,11.63-18.47l1.15.61a26.46,26.46,0,0,1,.9,6c.17,6.66-5.46,11.67-10.51,16.46-4,3.81-6.94,10.54-8,13.15" transform="translate(0 -1.39)"/><path class="cls-7" d="M71.56,48.86a34.4,34.4,0,0,0-5-1.55C57,50.53,54.34,54.73,53,56.51c-1.57,2-2.11,6.51-10.17,6.9-3,.15-6.48-1.8-9.77-4.31-14.22,1.83-12.44,25.11-2.89,35C47,111.57,86.86,115.69,94.51,88.85c-5.15-14.25-17.63-10.52-26.78-8.5-10,2.2-14.54-4.08-15.49-15.06-.68-7.89,12.1-13.76,19.32-16.43" transform="translate(0 -1.39)"/><path class="cls-5" d="M37.44,61.71A31.53,31.53,0,0,1,33.09,59c-6.79.85-10,6.31-10.6,12.9a10.11,10.11,0,0,0,5,1.31,10,10,0,0,0,10.07-9.88,10.18,10.18,0,0,0-.13-1.57" transform="translate(0 -1.39)"/><path class="cls-12" d="M26.89,53.81c-4.51,0-8.17,3.28-8.17,7.33s3.66,7.32,8.17,7.32,8.16-3.28,8.16-7.32-3.65-7.33-8.16-7.33" transform="translate(0 -1.39)"/><path class="cls-5" d="M80.53,107.53c5.44,6,8,23.59,7.63,31.52H64.91c-1.23-4.34-4.3-14.17-7.75-17.52-3-2.91-2.38-8.18,1.16-11.45,7.8,1.28,15.66.59,22.21-2.55" transform="translate(0 -1.39)"/><path class="cls-10" d="M72.39,73.33s-1.93-9.86-13.67-6.56" transform="translate(0 -1.39)"/><path class="cls-10" d="M48.14,59.77s-1.22-6.22-8.64-4.14" transform="translate(0 -1.39)"/><path class="cls-5" d="M61.12,118.76c-2.73-3.65-6.8-7.88-7.83-11.67-.62-2.31,1-5.18,2.11-6.07,2.94-2.37,6.15-4.17,11.47.69,10.41,9.52,16.27,22.43,16.91,28.31.08.78-2.22,3.17-2.15,4l-8-.1C69.22,128.23,64.26,123,61.12,118.76Z" transform="translate(0 -1.39)"/><path class="cls-10" d="M69.81,130c-3.45-4.42-6.89-8.86-8.69-11.26-2.73-3.65-6.8-7.88-7.83-11.67-.62-2.31,1-5.18,2.11-6.07,2.94-2.37,6.15-4.17,11.47.69S78,114.31,82.23,121.35" transform="translate(0 -1.39)"/><path class="cls-7" d="M62,118c-2.65-3.56-6.55-7.71-7.67-11.3a6,6,0,0,1,1.59-5.56c2.53-2.05,5.34-3.57,10.4,1.24A92.37,92.37,0,0,1,78,116.75a12.11,12.11,0,0,1-11.47,7.39L62,118" transform="translate(0 -1.39)"/><path class="cls-15" d="M41.67,78.6a47.11,47.11,0,0,0-3.5-4.74,2.55,2.55,0,0,0-4.29.57,3.59,3.59,0,0,0,.49,2.43S31.51,75.35,30,76s-1.24,3.16.74,5,1.58,1.52,5.07,3.48" transform="translate(0 -1.39)"/><path class="cls-13" d="M62.58,105s-2.72-4.3-4.6-5.68" transform="translate(0 -1.39)"/><path class="cls-13" d="M59.5,107.29s-3.39-3.79-4.2-6" transform="translate(0 -1.39)"/></g><text y="-1.39"/><circle class="cls-15" cx="33.02" cy="78.96" r="3.58"/></g></g></svg>