<?xml version="1.0" standalone="no"?>
<!DOCTYPE svg PUBLIC "-//W3C//DTD SVG 20010904//EN"
 "http://www.w3.org/TR/2001/REC-SVG-20010904/DTD/svg10.dtd">
<svg version="1.0" xmlns="http://www.w3.org/2000/svg"
 width="200.000000pt" height="200.000000pt" viewBox="0 0 200.000000 200.000000"
 preserveAspectRatio="xMidYMid meet">
<g transform="translate(0.000000,200.000000) scale(0.100000,-0.100000)"
fill="#ad2124" stroke="none">
<path d="M744 1636 c-28 -7 -85 -28 -125 -48 -287 -137 -425 -463 -324 -765
15 -43 42 -103 61 -134 41 -69 152 -175 225 -217 59 -33 169 -72 205 -72 12 0
36 -11 52 -25 47 -40 102 -33 127 16 22 41 19 57 -15 91 -26 25 -36 29 -62 24
-18 -3 -40 -14 -50 -23 -45 -40 -235 42 -338 146 -112 114 -160 231 -160 392
0 165 55 296 169 402 76 70 147 110 241 136 101 28 100 29 100 -24 0 -43 -1
-44 -37 -50 -105 -18 -192 -64 -266 -144 -70 -74 -127 -202 -127 -285 0 -26 3
-24 44 31 114 156 286 256 501 294 64 11 67 10 92 -12 65 -60 183 -284 183
-348 0 -39 18 -30 46 24 27 51 31 55 65 55 37 0 66 21 54 40 -3 5 -21 10 -38
10 -30 0 -34 4 -60 64 -57 129 -197 242 -327 264 l-45 7 -5 70 c-3 39 -9 76
-13 83 -10 15 -104 15 -173 -2z"/>
<path d="M927 1321 c-15 -5 -10 -10 25 -25 65 -30 134 -104 152 -167 20 -67
20 -94 -1 -154 -44 -132 -206 -196 -309 -123 -63 46 -79 75 -79 151 0 67 1 69
42 107 23 22 53 42 67 46 67 16 136 -25 157 -95 21 -72 -27 -131 -106 -131
-57 0 -106 73 -72 107 18 18 37 10 37 -16 0 -36 51 -56 78 -29 19 19 14 76 -8
98 -34 34 -98 20 -137 -30 -30 -38 -7 -132 40 -163 115 -75 275 35 253 174
-19 119 -112 199 -231 199 -112 0 -245 -93 -245 -172 0 -84 81 -272 151 -352
42 -47 44 -48 90 -43 92 11 220 77 323 168 51 45 56 68 35 157 -15 64 -91 219
-129 265 -27 32 -37 37 -73 36 -23 0 -50 -4 -60 -8z"/>
<path d="M503 1058 c-71 -76 -81 -145 -33 -246 56 -119 184 -217 315 -241 32
-6 61 -11 64 -11 3 0 -29 33 -70 73 -122 117 -180 214 -223 375 l-22 82 -31
-32z"/>
<path d="M1305 973 c-55 -83 -129 -157 -208 -210 -71 -47 -194 -103 -228 -103
-57 0 21 -68 97 -84 19 -4 48 -1 75 8 31 11 84 16 177 16 125 0 132 1 132 20
0 19 -7 20 -97 20 l-96 0 54 58 c65 68 91 109 112 177 15 49 31 155 24 155 -2
0 -21 -26 -42 -57z"/>
</g>
</svg>
