<svg xmlns="http://www.w3.org/2000/svg" viewBox="0 0 261.64 247.82"><defs><style>.cls-1{fill:#70443c;}.cls-2{fill:#fbfaf9;}.cls-3{fill:#f6ac5e;}.cls-4{fill:#ed8b8a;}.cls-5{fill:#f7d695;}.cls-6{fill:#6c3e36;}.cls-7{fill:none;stroke:#6d4130;stroke-linecap:round;stroke-miterlimit:10;stroke-width:5.63px;}</style></defs><g id="Layer_2" data-name="Layer 2"><g id="Layer_1-2" data-name="Layer 1"><path class="cls-1" d="M106.07,246.18c-1-1.8-1.62-3.68-4.1-2.78-2.07.76-1.61,2.45-1.34,4.18h6A5.05,5.05,0,0,0,106.07,246.18ZM228.92,183.4a48.9,48.9,0,0,1-3.82-16.53c-.07-1.05-.1-2.12-.1-3.17a80.7,80.7,0,0,1,1.59-15.48c.6-3.14,2.95-5.89,2.6-8.63-1-7.61-5-14.47-3.56-22.88.64-3.66-3.63-8.18-5.7-12.29-.86-1.69-1.65-3-.42-5.22C231,78,231.53,55.75,226,32.88,223.65,23.43,221,14,215,6.15c-5.77-7.6-12.07-8.09-19.26-1.84-4.08,3.55-7.13,7.92-10,12.47C177,30.8,170.47,46,164.7,61.41c-1.88,5-4.27,6.33-9.46,6.17-13.94-.43-27.74,1.28-40.27,7.88-4.58,2.42-7,1.53-10.46-1.92C91.87,60.75,78.84,48.3,62.74,39.86,48,32.15,39.47,37.31,38.77,54a104.12,104.12,0,0,0,8.94,47.51c5.14,11.42,11.21,23,21.59,30.64,4.58,3.39,5.91,6.69,5.86,11.86-.06,4.32,1,8.65,1.66,12.95.27,1.68.85,4,2.6,4,4.88,0,4.72,3.76,4.77,6.56.14,7.39-1.24,16.1-5.18,20.87C66.47,203.6,57.5,220.6,48.71,237.87a68.12,68.12,0,0,0-4.2,9.71H50.7s0,0,0,0C58.92,230.61,66,213,78.57,198.42c3.09-3.57,3.69-2.81,7.21.2,8.15,7,13.29,17.67,25.48,20.24,4.35.9,7.29,7.23,11.71,9.19,7.92,3.51,12.52,10.06,17.85,16.09a3.47,3.47,0,0,1,2.62,3.44h12.45c.26-1.88-1.12-2.58-2.83-3.16-8.35-2.87-13.37-9.33-17.52-16.64-1.45-2.53-2.47-3.85-6.42-3.87-6.7,0-10.52-6-13.38-11.63-1.78-3.48-2.83-6.77-6.69-1.82-1.67,2.12-3,.15-4.23-.77a28.65,28.65,0,0,1-7.85-9.4c-1.34-2.41-1.83-5.31-5.92-5.4-2.77-.06-2.68-3.44-2.9-5.79a11.48,11.48,0,0,1,2.17-8.22c1.1-1.34,2.92.41,4,1.84a33.37,33.37,0,0,0,10.74,8.53c1.76.94,3.76,2,5-.24s-.22-4-2.25-4.52c-7.75-2.1-9.47-10.55-15.73-14.67-3.51-2.3-3.38-9.21-3.64-14.34-.61-3-.94-5.08-5-6.65-5.38-2.1-3.69-8.87-1.68-12.41,2.77-4.91.68-5.85-3-7.1-4.78-1.63-8.38-4.87-11.46-8.69C51.09,102.32,43.35,79.14,44.57,53.07c.51-10.81,5-13.66,14.64-8.65,17.66,9.22,31.54,23.26,45.58,37a57.83,57.83,0,0,0,5.23,5c1.77,1.33,4.22,1.43,4.32-1.34.22-5.1,4.33-5,7.41-6.47,12.3-4.86,25-6.83,38.18-4.89,4.17,2.25,5.91.34,7.36-3.63,5.52-15,11.61-29.74,19.35-43.75,3.28-5.94,6.68-11.83,11.58-16.64C204,4.08,207,4.3,211.47,11c6.13,9,8.15,19.55,10.53,29.92,3.47,15,1.53,29.8-2.29,44.45-1.49,5.72-3.94,10.91-8.65,14.78-1.91,1.56-3.25,4.23-.56,5.24,8.09,3,9.37,7.61,4.62,14.45,9.15,11.39,6.51,24.33,4.91,37.16-.66,5.3-6.17,6.23-8.62,9.92-1.13,1.73-3.07,2.9-4.6,4.39h0l-.11.1c-.92.92-1.9,2-1.23,3.36a2,2,0,0,0,.26.43c1.27,1.68,3,1.59,4.49.41,1.88-1.5,3.66-3.15,5.46-4.78h0c.52-.52,1.06-1,1.6-1.48.23.19.44.38.64.57,2.36,2.35,2.84,5.57,4.11,8.36.45,1,.78,3.16-.3,3.13-9.61-.23-3.07,5.67-3.28,8.76-.19,2.6.64,5.25.81,7.89.08,1,.15,3.16-1.41,2.63-8.84-3.08-5.29,4-5.8,7.2-.09.58-.18,1.15-.25,1.73-.19,1.27-.37,2.54-.54,3.79A39.91,39.91,0,0,1,209.2,222c-1,2.68-1.15,6.47-6.14,4.93-2.7-.83-3.27,2.07-4,4.12-2,5.53-4,11.1-6.38,16.49h5.5l17-23.73c0-4.65,1-12.64,3.31-13.4a8.9,8.9,0,0,0,4.62-3,7.3,7.3,0,0,0,1.32-3.53c.33-2.51-.14-5.26.52-7.67.51-1.91-1.56-4.62,1.43-5.72C230.24,189.16,230,186,228.92,183.4Z"/><path class="cls-2" d="M222,178.23c-1.27-2.79-1.75-6-4.11-8.36-.2-.19-.41-.38-.64-.57-.54.48-1.08,1-1.6,1.48h0c-1.8,1.63-3.58,3.28-5.46,4.78-1.45,1.18-3.22,1.27-4.49-.41a2,2,0,0,1-.26-.43c-.67-1.33.31-2.44,1.23-3.36l.11-.1h0c1.53-1.49,3.47-2.66,4.6-4.39,2.45-3.69,8-4.62,8.62-9.92,1.6-12.83,4.24-25.77-4.91-37.16-4.73,3.37-4.84,8.8-5.49,13.64s-2.84,8.23-7,10.11-7.71.12-11-3.11c-5.11-5-11.91-6-18.73-6.5,2.19,9-3,14.48-10,19.22,11.47,2.42,14.55.54,16.74-9.84.35-1.67.13-3.62,2.52-3.66,2.84-.05,2.83,2.17,2.81,4.11,0,2.67.33,5.9-1.56,7.7-5.23,5-4.41,11.27-4.94,17.43a27.62,27.62,0,0,1-2.21,8.39c-2.53,5.87-7.12,9-13.61,9.21-6.66.18-10.57-3.86-12.22-9.52-1.95-6.65-4.2-12.32-11.84-14-1.45-.33-2.69-2-3.86-3.21-1.36-1.43-2.75-3.28-.9-5.06s3.32-.11,4.93,1.16c8.2,6.56,13.13,6,21.3-2.48-5.63-.51-10.43-2.39-13.85-6.8-4.07-5.2-3.23-10,2.82-12.22,7.22-2.63,14.72-5,22.5-1.72-7.36-18.91-10.26-38.71-11.62-58.8-13.18-1.94-25.88,0-38.18,4.89,14.52,9.79,16.11,25.6,18.91,40.82.52,2.86.71,5.77,1.06,8.66.9,7.5,1.94,14.29-8.35,17.26-7.76,2.26-11.36,10.08-14.93,17.08-4.73,9.26-8.17,10.19-17.06,4.4-4.46-2.89-8.61-6.27-12.89-9.43.26,5.13.13,12,3.64,14.34,6.26,4.12,8,12.57,15.73,14.67,2,.56,3.47,2.38,2.25,4.52s-3.28,1.18-5,.24a33.37,33.37,0,0,1-10.74-8.53c-1.09-1.43-2.91-3.18-4-1.84a11.48,11.48,0,0,0-2.17,8.22c.22,2.35.13,5.73,2.9,5.79,4.09.09,4.58,3,5.92,5.4a28.65,28.65,0,0,0,7.85,9.4c1.24.92,2.56,2.89,4.23.77,3.86-5,4.91-1.66,6.69,1.82,2.86,5.65,6.68,11.58,13.38,11.63,3.95,0,5,1.34,6.42,3.87,4.15,7.31,9.17,13.77,17.52,16.64,1.71.58,3.09,1.28,2.83,3.16h36.77c2.35-5.39,4.33-11,6.38-16.49.75-2.05,1.32-5,4-4.12,5,1.54,5.09-2.25,6.14-4.93a39.91,39.91,0,0,0,2.07-8.68c.17-1.25.35-2.52.54-3.79.07-.58.16-1.15.25-1.73.51-3.24-3-10.28,5.8-7.2,1.56.53,1.49-1.59,1.41-2.63-.17-2.64-1-5.29-.81-7.89.21-3.09-6.33-9,3.28-8.76C222.82,181.39,222.49,179.23,222,178.23Zm-44.71,19.39c-4.06,3-8.81,3.82-13.74,4.14-3.82-.4-7.7-.5-11.37-2-1.72-.72-3.15-1.62-2.48-3.71.51-1.62,2-2.08,3.53-1.62,7.74,2.35,15.22,2.64,22.33-2a2.23,2.23,0,0,1,3.14.93C179.85,195.23,178.77,196.55,177.33,197.62Z"/><path class="cls-3" d="M127.8,136.83c-.34,0-.66,0-1,0a7.58,7.58,0,0,0,1,.05,9.81,9.81,0,0,0,1.23-.07A12,12,0,0,1,127.8,136.83Z"/><path class="cls-3" d="M141.72,128.17c-.35-2.89-.54-5.8-1.06-8.66-2.8-15.22-4.39-31-18.91-40.82-3.08,1.43-7.19,1.37-7.41,6.47-.1,2.77-2.55,2.67-4.31,1.34a56.65,56.65,0,0,1-5.24-5c-14-13.78-27.92-27.82-45.58-37-9.59-5-14.13-2.16-14.64,8.65-1.22,26.07,6.52,49.25,22.85,69.56,3.08,3.82,6.68,7.06,11.46,8.69,3.65,1.25,5.73,2.19,3,7.1-2,3.54-3.7,10.31,1.68,12.41,4,1.57,4.36,3.67,5,6.65,4.29,3.16,8.43,6.54,12.89,9.43,8.89,5.79,12.33,4.86,17.06-4.4,3.57-7,7.17-14.82,14.93-17.08C143.66,142.46,142.63,135.67,141.72,128.17ZM94.32,106a44.23,44.23,0,0,0-9,14.83c-2.39,6.9-5.86,5.79-10,2C61.74,110.6,53.89,95,48.85,77.68a41.94,41.94,0,0,1-1.56-14.39C47.83,54.15,53.41,49.64,62,52.6c14,4.86,24,15.56,32.89,26.7,4.19,5.23-3.4,4.1-6,6.12,1.3,1,2.2,1.64,3.13,2.29C98.61,92.32,99.72,100,94.32,106Zm33.47,30.82a7.58,7.58,0,0,1-1-.05c.32,0,.64,0,1,0a12,12,0,0,0,1.22-.06A9.81,9.81,0,0,1,127.79,136.84Zm6.22-2.79a6.62,6.62,0,0,0,.7-1.38A5.77,5.77,0,0,1,134,134.05Z"/><path class="cls-3" d="M140.82,244.14a11.92,11.92,0,0,1-2.28,3.44H106.6a5.05,5.05,0,0,0-.53-1.4c-1-1.8-1.62-3.68-4.1-2.78-2.07.76-1.61,2.45-1.34,4.18H50.7s0,0,0,0C58.92,230.61,66,213,78.57,198.42c3.09-3.57,3.69-2.81,7.21.2,8.15,7,13.29,17.67,25.48,20.24,4.35.9,7.29,7.23,11.71,9.19C130.89,231.56,135.49,238.11,140.82,244.14Z"/><path class="cls-3" d="M211.06,100.1c4.71-3.87,7.16-9.06,8.65-14.78,3.82-14.65,5.76-29.44,2.29-44.45C219.62,30.5,217.6,20,211.47,11,207,4.3,204,4.08,198.22,9.78c-4.9,4.81-8.3,10.7-11.58,16.64-7.74,14-13.83,28.76-19.35,43.75-1.45,4-3.19,5.88-7.36,3.63,1.36,20.09,4.26,39.89,11.62,58.8l1.33,1.33c6.82.54,13.62,1.46,18.73,6.5,3.26,3.23,6.68,5,11,3.11s6.41-5.19,7-10.11.76-10.27,5.49-13.64c4.75-6.84,3.47-11.42-4.62-14.45C207.81,104.33,209.15,101.66,211.06,100.1Zm-29.68,26.73c-4.84-.54-7.45-3.19-7.13-8.15.29-4.65,3.15-7,7.68-6.85,5,.14,7.45,3.19,7.18,8.06C188.84,124.51,186,126.71,181.38,126.83Zm20.56-34.92c-3.24-2.9-6.45-6.66-10.34-7.8-6.31-1.85-8.22-7.16-11-11.53-2.5-3.88,2.8-6.68,3.74-11.7-7.93,1.91-8.18-1.51-6-7.34,3.72-10,7.8-19.88,14.19-28.55,3.51-4.79,7.78-9.07,14.54-7.7,6.1,1.24,8.36,6.39,9.68,11.62,5.23,20.82,4.52,41.33-4.45,61.09C209.07,97,207.61,97,201.94,91.91Z"/><path class="cls-2" d="M143.44,247.58h-4.9a11.92,11.92,0,0,0,2.28-3.44A3.47,3.47,0,0,1,143.44,247.58Z"/><path class="cls-1" d="M185,143.76c0-1.94,0-4.16-2.81-4.11-2.39,0-2.17,2-2.52,3.66-2.19,10.38-5.27,12.26-16.74,9.84,7-4.74,12.15-10.21,10-19.22l-1.33-1.33c-7.78-3.31-15.28-.91-22.5,1.72-6.05,2.22-6.89,7-2.82,12.22,3.42,4.41,8.22,6.29,13.85,6.8-8.17,8.47-13.1,9-21.3,2.48-1.61-1.27-3.08-2.92-4.93-1.16s-.46,3.63.9,5.06c1.17,1.23,2.41,2.88,3.86,3.21,7.64,1.72,9.89,7.39,11.84,14,1.65,5.66,5.56,9.7,12.22,9.52,6.49-.17,11.08-3.34,13.61-9.21a27.62,27.62,0,0,0,2.21-8.39c.53-6.16-.29-12.46,4.94-17.43C185.32,149.66,185,146.43,185,143.76Zm-13.37,29.36c-2,6-6.76,8.91-11.46,7.18-3.35-1.24-7.39-10-6.29-13.72a5.74,5.74,0,0,1,5.48-4c2.81,0,1.43,2.93,1.69,4.62.33,2.19-1.18,5.65,2.36,5.78s3.28-3.43,3.53-6c.06-.48,0-1,0-1.44.19-2.19-1.13-5.31,2.85-5.34,4.56,0,2.61,3.6,3.29,6.34A57,57,0,0,1,171.62,173.12Z"/><path class="cls-1" d="M163.59,201.76c-3.82-.39-7.7-.5-11.37-2-1.72-.72-3.15-1.62-2.49-3.71.52-1.62,2-2.08,3.54-1.61,7.73,2.34,15.22,2.63,22.33-2.06a2.22,2.22,0,0,1,3.14.93c1.1,1.93,0,3.25-1.41,4.31C173.27,200.63,168.52,201.43,163.59,201.76Z"/><path class="cls-1" d="M92,87.71c-.93-.65-1.83-1.34-3.13-2.29,2.62-2,10.2-.89,6-6.12C85.94,68.16,76,57.46,62,52.6c-8.56-3-14.15,1.55-14.69,10.69a42.19,42.19,0,0,0,1.56,14.39c5,17.28,12.89,32.92,26.45,45.2,4.17,3.76,7.64,4.87,10-2a44.25,44.25,0,0,1,9-14.83C99.71,100,98.61,92.32,92,87.71ZM86.72,97.9c-1.32,5.78-1.59,11.57-4.85,17-2.26,3.72-3.63,3.69-6.23.75C63.35,101.68,55,85.87,52.9,67.21c-.35-3-.91-6.68,2.13-8.7,3.22-2.18,6.57-.54,9.55,1.13,8.51,4.8,15.48,11.46,22.55,19-2.45,1.9-4.56,3.14-6.17,4.86-2.74,2.91-3.25,5.67,1.86,6.43C88.34,90.74,88,92.45,86.72,97.9Z"/><path class="cls-3" d="M129,136.77a9.81,9.81,0,0,1-1.23.07,7.58,7.58,0,0,1-1-.05c.32,0,.64,0,1,0A12,12,0,0,0,129,136.77Z"/><path class="cls-3" d="M131,122.5a6.81,6.81,0,0,1,1.27.62A7.13,7.13,0,0,0,131,122.5Z"/><path class="cls-1" d="M216.71,28.91c-1.32-5.23-3.58-10.38-9.68-11.62-6.76-1.37-11,2.91-14.54,7.7C186.1,33.66,182,43.49,178.3,53.54c-2.16,5.83-1.91,9.25,6,7.34-.94,5-6.24,7.82-3.74,11.7,2.8,4.37,4.71,9.68,11,11.53,3.89,1.14,7.1,4.9,10.34,7.8C207.61,97,209.07,97,212.26,90,221.23,70.24,221.94,49.73,216.71,28.91ZM209,84c-1.29,3.29-2.86,4.44-5.48,1.37-3.34-3.91-10.92-4.51-9.45-12.22.11-.58-1-1.75-1.84-2.11-5.66-2.63-4-5.38-.17-8.1,1.38-1,3.2-1.64,2.87-3.73a4.68,4.68,0,0,0-4.8-3.73c-6.9-.16-5.73-3.49-3.69-7.8,3.62-7.67,6.77-15.62,12.77-21.81,4.74-4.89,8.37-4.29,11.13,1.85,3.64,8.16,3.73,16.93,3.86,24C214.05,63.9,212.87,74.18,209,84Z"/><path class="cls-1" d="M181.39,126.84c-4.85-.55-7.47-3.21-7.15-8.16.3-4.65,3.16-7,7.69-6.85,5,.15,7.45,3.2,7.17,8.07C188.84,124.52,186,126.71,181.39,126.84Z"/><path class="cls-4" d="M173.08,166.54a56.72,56.72,0,0,1-1.45,6.58c-2,6-6.77,8.92-11.47,7.18-3.35-1.24-7.38-10-6.29-13.73a5.74,5.74,0,0,1,5.48-4c2.81,0,1.43,2.92,1.69,4.61.34,2.18-1.18,5.64,2.37,5.77s3.28-3.42,3.53-6c0-.48-.05-1,0-1.45.19-2.18-1.14-5.3,2.84-5.33C174.34,160.16,172.4,163.8,173.08,166.54Z"/><path class="cls-5" d="M87.14,78.64c-2.46,1.89-4.57,3.13-6.18,4.85-2.74,2.93-3.24,5.68,1.86,6.44,5.52.82,5.16,2.52,3.91,8-1.34,5.78-1.6,11.56-4.86,17-2.26,3.72-3.63,3.7-6.22.75C63.35,101.69,55,85.87,52.89,67.2c-.34-3-.9-6.66,2.13-8.7,3.22-2.16,6.58-.53,9.55,1.14C73.1,64.44,80.06,71.11,87.14,78.64Z"/><path class="cls-5" d="M214.22,51.76C214.06,63.9,212.87,74.18,209,84c-1.29,3.29-2.87,4.44-5.49,1.36-3.33-3.9-10.92-4.5-9.44-12.22.11-.58-1-1.74-1.83-2.11-5.67-2.63-4-5.37-.18-8.09,1.39-1,3.2-1.64,2.86-3.72a4.7,4.7,0,0,0-4.79-3.75c-6.89-.16-5.73-3.47-3.69-7.8,3.61-7.66,6.77-15.6,12.78-21.81,4.73-4.88,8.37-4.28,11.11,1.86C214,35.92,214.09,44.69,214.22,51.76Z"/><path class="cls-6" d="M135.53,127.08l-7.46-1.76c-2.27-.53-4.45-1.1-6.61.08-1.89,1-3.21,2.9-4.54,4.52-.76.91-1.5,1.83-2.26,2.74-.35.41-.68.9-1.22,1a2.92,2.92,0,0,1-1.76-.49c-1.55-.83-2.93,1.53-1.38,2.35,2,1,4.14,1.32,5.82-.39s3.08-3.85,4.72-5.66a6.28,6.28,0,0,1,2.49-1.94,6.77,6.77,0,0,1,3.56.31l7.91,1.87c1.71.4,2.44-2.23.73-2.63Z"/><path class="cls-6" d="M135,129.13c-1.73-.27-3.47-.54-5.18-.94a30.8,30.8,0,0,0-5.15-1.29c-3.15-.19-6.3,2.1-8.37,4.25-1.22,1.26.71,3.19,1.93,1.93,1.68-1.75,4.4-3.92,7-3.36,1.47.32,2.87.88,4.35,1.21s3.12.59,4.69.83a1.4,1.4,0,0,0,1.68-.95,1.37,1.37,0,0,0-.95-1.68Z"/><path class="cls-6" d="M134.58,131.21c-1.84-.45-3.7-.87-5.56-1.23a13.07,13.07,0,0,0-5.09-.36,18.78,18.78,0,0,0-4.66,2.1l-5.1,2.67c-.78.41-.09,1.59.69,1.18l4.76-2.49A20.86,20.86,0,0,1,124,131a11.58,11.58,0,0,1,5.06.35q2.61.51,5.19,1.16a.68.68,0,0,0,.36-1.32Z"/><path class="cls-4" d="M240.05,112.66c.33-2.07.45-4.62-1.28-5.78a3.73,3.73,0,0,0-2.31-.54,5.88,5.88,0,0,0-5,3.5,10.55,10.55,0,0,0-.49,4.81,51.48,51.48,0,0,0,2,10.95.76.76,0,0,0,.11.26c.22.32.71.2,1.06,0a85.31,85.31,0,0,1,8.8-3.51,23.46,23.46,0,0,0,5.15-1.87,5.38,5.38,0,0,0,2.87-4.39c0-2.13-1.9-3.87-3.94-4.48a7.72,7.72,0,0,0-7,1.4"/><path class="cls-4" d="M148.18,45.45c-1.45-1.76-3.43-3.7-5.63-3.13a4.11,4.11,0,0,0-2.11,1.49,6.41,6.41,0,0,0-.74,6.59,11.35,11.35,0,0,0,3.56,3.87,56.62,56.62,0,0,0,10.35,6.29,1.11,1.11,0,0,0,.29.1c.42,0,.67-.44.8-.84a95,95,0,0,1,3.49-9.7,24.58,24.58,0,0,0,2.19-5.54,5.8,5.8,0,0,0-1.5-5.5c-1.76-1.51-4.52-1.24-6.49,0a8.42,8.42,0,0,0-3.91,6.7"/><path class="cls-4" d="M93.93,37.64c-1.49-1-3.43-2-5-1.11a3.24,3.24,0,0,0-1.27,1.6,5.06,5.06,0,0,0,.91,5.16,9,9,0,0,0,3.57,2.14,44.77,44.77,0,0,0,9.25,2.46.7.7,0,0,0,.25,0c.32-.06.41-.48.42-.81a76.11,76.11,0,0,1,.47-8.13,19.61,19.61,0,0,0,.43-4.69,4.63,4.63,0,0,0-2.37-3.84c-1.67-.75-3.71.07-4.93,1.43a6.66,6.66,0,0,0-1.46,6"/><path class="cls-4" d="M42.49,150.56c-2-2.4-4.71-5.06-7.72-4.28a5.64,5.64,0,0,0-2.89,2,8.8,8.8,0,0,0-1,9,15.51,15.51,0,0,0,4.88,5.29,76.67,76.67,0,0,0,14.17,8.61,1.47,1.47,0,0,0,.4.14c.57.06.91-.6,1.09-1.14A129,129,0,0,1,56.19,157c1.13-2.48,2.49-4.9,3-7.58s0-5.76-2.06-7.53c-2.4-2.07-6.19-1.71-8.88,0A11.52,11.52,0,0,0,42.9,151"/><line class="cls-7" x1="2.82" y1="245" x2="258.82" y2="245"/></g></g></svg>