<svg xmlns="http://www.w3.org/2000/svg" viewBox="0 0 306.63 281.82"><defs><style>.cls-1{fill:#6d4130;}.cls-2{fill:#fbfaf9;}.cls-3{fill:#f5ab5d;}.cls-4{fill:#f6ac5e;}.cls-5{fill:#f5ac5d;}.cls-6{fill:#fbf9f5;}.cls-7{fill:#6b3f38;}.cls-8{fill:#f6d598;}.cls-9{fill:#f6ad5e;}.cls-10,.cls-11{fill:none;}.cls-11{stroke:#6d4130;stroke-linecap:round;stroke-miterlimit:10;stroke-width:5.63px;}</style></defs><g id="Layer_2" data-name="Layer 2"><g id="Layer_1-2" data-name="Layer 1"><path d="M100.56,28c1-1.18,2.6-1.79,4.91-1.83,2.62,0,4.2,1.28,4.72,4a39.82,39.82,0,0,1,.25,8.44c.27,1.18,1.12,1.75,2.57,1.73a2.92,2.92,0,0,0,3-2c0-3.31,0-5.07,0-5.28a23,23,0,0,1,.68-5.22c.33-1.27,1.69-1.93,4.11-2,2.06,0,3.44.47,4.14,1.51q1.5,5.28,1.75,19.64.12,7.53-.11,14.82a3.47,3.47,0,0,1-2,1.94,7.63,7.63,0,0,1-2.87.6q-3.45.06-4.23-2.19a73.33,73.33,0,0,1-1-9.62c-.1-1.38-.92-2.05-2.47-2s-2.52.77-2.49,2.21a52.13,52.13,0,0,1-.11,7.74,4.85,4.85,0,0,1-5.1,4.26,8.91,8.91,0,0,1-3.1-.5c-1.31-.44-2-1.09-2.14-2a129.1,129.1,0,0,1-1.35-18Q99.45,32.43,100.56,28Z"/><path d="M130.64,30.94q.3-5.89,6.82-5.9a5.7,5.7,0,0,1,3.71,1A6.72,6.72,0,0,1,143,29.54a7.24,7.24,0,0,1,.24,1.68,5.54,5.54,0,0,1-1.84,4.51,7.16,7.16,0,0,1-4.81,1.71,5.39,5.39,0,0,1-4.33-1.93A6.29,6.29,0,0,1,130.64,30.94ZM132,41.64q.94-1.81,4.74-1.88,4.1-.07,5.26,1.92c.6,1,1,4.6,1.06,10.73q.15,8.13-.53,10.41-.7,1.79-5.19,1.86-4.12.07-4.86-1.53-1.23-2.7-1.4-11.78C131,45.87,131.31,42.62,132,41.64Z"/><path class="cls-1" d="M264.34,197.67c4-12.19,0-24.81-10.06-30.6-4.55-2.61-6.81-5.53-7.44-11.13-.92-8.25-5.73-14.26-13-12-8.2,2.53-8.23-3.25-9.61-8.29s-5.93-8.24-2.65-15.52c12.75-28.31,5.41-70.45-6.28-98.68C204.23-5.27,177.75-7.69,169.79,18c-5,16.28-7.7,43.78-11.71,60.6-1.52,6.35-3.94,8.53-10,8.17-14.34-.85-28.08,2.92-40.64,10.46-6,3.59-9.16,2.35-13.67-2.77-12.87-14.62-29-45-47.06-51.45-13-4.61-23.12,1.62-27.21,16a47.38,47.38,0,0,0-1.61,19.22c3.94,30.22,17.49,72.31,41,89.8,2.46,1.83,4.76,3.27,4.21,7-2.78,18.52,10.13,30.61,15.22,45.9,2.49,7.47,5.52,14.37,3.86,22.75A209.74,209.74,0,0,0,79,266.74,26.49,26.49,0,0,1,75.1,279H86.78c-.16-3.43-.18-6.89-.12-10.36,0-4.09-.08-8.19,0-12.28.06-1.87-.62-4.74,1.78-5,1.55-.16,3.73,1,4.82,2.42,2,2.52,3.07,6,5.18,8.39,3.15,3.53,4.88,10.27,11.46,7.48.49-.2,1.51-.14,1.69.19a28.78,28.78,0,0,0,8.5,9.16h9.76c-5.66-4.37-11.52-8.51-15.47-14.88-.82-1.32-2.77-3.37-3.27-3.07-9.1,5.25-9.3-4.81-12.72-9.09-1.53-1.92-1.35-5.24-4.35-6.06-6-1.65-5.61-6.77-5.37-12.55,1.57.9,2.55,1.59,3.62,2.06,2.9,1.28,6.81,5.5,8.69,1.24s-3.81-3.82-6-5.59c-4.77-3.84-7.33-9-8.33-15.29h0a11.55,11.55,0,0,1-2-.24,8.4,8.4,0,0,1-2.12-.77,6.78,6.78,0,0,1-1.27-.87,7.82,7.82,0,0,1-.71-.7c-2.2-2.47-2.79-6.41-3.47-10.44-.75-4.46,1.95-10.67-6.63-11.42-3.54-.3-3.31-10.21-2-15,2.3-8.27-1.8-10.21-6.87-13.27-21.87-13.24-42.3-70.92-38.39-98.67,2.08-14.82,12-20.78,25.18-15,15.78,6.92,30.29,36.05,42.12,48.94,2.84,3.1,5.55,6.35,8.39,9.46,1.73,1.88,3.87,2.94,5.16-.22,2.67-6.61,8.43-7,13.48-8.93a48.67,48.67,0,0,1,29.35-6c12.53,4.62,13.62-5.38,16.52-15C176.89,33.39,170.9,36,173.82,21c4.46-23,27.9-20,36.64,2.16,11.59,29.33,19.64,72.09,3.28,100.58-2.12,3.68-2.13,4.81,1.23,7.78s9.74,6.91,1.81,13.48c-4.13,3.42,3.33,6.23,2.68,10.28-15.69,2-18.77,6.84-14.53,22.67,1.26,1.44,3.85,3.67,3.59,4.21-4.84,10.2,1,21.07-1.8,31.28-.37,1.31-1.12,2.53.07,3.6,1.52,1.39,2.88.32,4-.77,3.08-2.91,6.43-3.89,8,1.06,1,3.05,6.52,8.1-1.72,10.18-3.22.82-.74,4.66-1.08,7.07-.72,5.17,6.89,13.77-4.76,14.86-1.58.14-.9,3.59-1,5.57-.42,6.1-.47,12.29-1.5,18.26-.31,1.83-.47,4.24-1.38,5.78h4.82a35.73,35.73,0,0,0,1.71-5.33c1.5-6.34-.67-14.51,7-18.42,1.39-.71,1.17-5.65,1.52-8.66.49-4.23-3.21-10.44,4.47-11.27.34,0,1-2.61.66-3.63-3-8.47-.39-19.53-11.31-24.35-6.82-3-6.13-11.44-3.58-18,1.95-5,2.3-8.34-1.35-12.6-3.47-4.06-5.87-9.51-.21-14,5.33-4.29,8.23.75,11.49,4.31,1.79,2,2.3,6.95,5.77,5.12s0-5.35,0-8.14c0-2-.19-4.08-.23-6.12-.1-4.68,1.65-8.17,5.94-8.93,4.55-.8,7.67,3,7.59,6.92-.18,9.8,5,13.2,11.73,17.5,10.07,6.43,10.17,20.44,1.63,29.64-1.82,1.95-6.22,3-4.52,6.58,2.2,4.62,5.06-2.21,7.93-.58,7.5,24.38-4.67,45.89-22.37,57.57-2.7,1.79-8.66,3.12-7.07,6.24a36.66,36.66,0,0,1,2,6.17h7.09c-3.16-3.24-1.27-6,5.58-11.57,18.19-14.8,25.49-34.2,20-58.94A19.28,19.28,0,0,1,264.34,197.67Z"/><path class="cls-2" d="M217.09,227.46c8.24-2.08,2.68-7.13,1.72-10.18-1.55-4.95-4.9-4-8-1.06-1.16,1.09-2.52,2.16-4,.77-1.19-1.07-.44-2.29-.07-3.6,2.85-10.21-3-21.08,1.8-31.28.26-.54-2.33-2.77-3.59-4.21-3.18,6.25-6.37,6.52-10.2.48-7-11.15-17.18-14.51-28.88-13.53,5.19,7.53,2.67,14.09-2.41,19.91s-11.4,6.37-17.54,2.36c-5.49-3.59-10-8.27-6.33-16.52-9.41,1.27-13.68,9.12-17.44,17.33a36.46,36.46,0,0,0-2.92,10.63c-1.23,10.68-5.82,15.31-15.81,13.13-5.85-1.27-11.24,2.19-16.72,4.08,1,6.29,3.56,11.45,8.33,15.29,2.2,1.77,7.93,1.25,6,5.59s-5.79,0-8.69-1.24c-1.07-.47-2-1.16-3.62-2.06-.24,5.78-.61,10.9,5.37,12.55,3,.82,2.82,4.14,4.35,6.06,3.42,4.28,3.62,14.34,12.72,9.09.5-.3,2.45,1.75,3.27,3.07,4,6.37,9.81,10.51,15.47,14.88h77.44c.91-1.54,1.07-3.95,1.38-5.78,1-6,1.08-12.16,1.5-18.26.14-2-.54-5.43,1-5.57,11.65-1.09,4-9.69,4.76-14.86C216.35,232.12,213.87,228.28,217.09,227.46ZM179,236.64c-4.37,5.25-19.41,8.08-25.09,4.49-.94-.6-2.15-1.8-2.2-2.79-.13-2.31,1.7-2.38,3.22-2.29,1.83.09,3.64.37,6.26.65,4.78.25,10.18-.13,14.72-4.44,1.42-1.35,3.13-2.67,4.46,0C181.29,234,180.14,235.33,179,236.64Zm4.49-48.22c-.92,4.32-2.61,9.05-6.45,10.63-10.29,4.25-20.86,7.69-31.93,11.68-2.11-.59-5-.74-7.31-2.19-3.46-2.2-10.06-4.56-7.88-9.06,2.35-4.88,5.4,2.41,8.47,3.56,3.49,1.31,8,4.3,10.33,1.39,7.84-9.89,21.88-2.69,28.79-13.89.66-1.07.73-2.57,1.21-3.8.88-2.25,0-6.77,3.35-6C185.79,181.58,184.09,185.83,183.53,188.42Z"/><path class="cls-3" d="M250.52,209.6c-1.7-3.54,2.7-4.63,4.52-6.58,8.54-9.2,8.44-23.21-1.63-29.64-6.74-4.3-11.91-7.7-11.73-17.5.08-4-3-7.72-7.59-6.92-4.29.76-6,4.25-5.94,8.93,0,2,.26,4.08.23,6.12,0,2.79,3.49,6.29,0,8.14s-4-3.16-5.77-5.12c-3.26-3.56-6.16-8.6-11.49-4.31-5.66,4.53-3.26,10,.21,14,3.65,4.26,3.3,7.61,1.35,12.6-2.55,6.54-3.24,15,3.58,18,10.92,4.82,8.34,15.88,11.31,24.35.35,1-.32,3.6-.66,3.63-7.68.83-4,7-4.47,11.27-.35,3-.13,7.95-1.52,8.66-7.7,3.91-5.53,12.08-7,18.42a35.73,35.73,0,0,1-1.71,5.33H231a36.66,36.66,0,0,0-2-6.17c-1.59-3.12,4.37-4.45,7.07-6.24C253.78,254.91,266,233.4,258.45,209,255.58,207.39,252.72,214.22,250.52,209.6Zm-10.72-13c-1.33,6.3-5.91,8.17-11.09,8.74a10,10,0,0,1-7.76-2.55,4.85,4.85,0,0,1-1.54-3.35c.29-2.35,2-1.93,3.53-1.42a20.31,20.31,0,0,0,3.48,1.22c3.08.39,6.24.68,8.18-2.89,1.25-2.31.57-4.56-.42-6.79-1.59-3.59-4.21-4.74-7.59-4.11-1.79.33-3.55,1-5.35,1.21a2.74,2.74,0,0,1-2.17-1.33,2.42,2.42,0,0,1,1.13-3.36c5-2.31,10.16-3.29,14.9.23C239.61,185.54,241,190.84,239.8,196.57Z"/><path class="cls-4" d="M117.6,98.69c-5,1.93-10.81,2.32-13.48,8.93-1.29,3.16-3.43,2.1-5.16.22-2.84-3.11-5.55-6.36-8.39-9.46-11.83-12.89-26.34-42-42.12-48.94-13.23-5.8-23.1.16-25.18,15-3.91,27.75,16.52,85.43,38.39,98.67,5.07,3.06,9.17,5,6.87,13.27-1.32,4.75-1.55,14.66,2,15,8.58.75,5.88,7,6.63,11.42.68,4,1.27,8,3.47,10.44a7.82,7.82,0,0,0,.71.7,6.78,6.78,0,0,0,1.27.87,8.4,8.4,0,0,0,2.12.77,11.51,11.51,0,0,0,2,.25c5.48-1.89,10.87-5.35,16.72-4.08,10,2.18,14.58-2.45,15.81-13.13a36.46,36.46,0,0,1,2.92-10.63c3.76-8.21,8-16.06,17.44-17.33.86-.91,1.72-1.84,2.57-2.76C138.34,142.87,131.85,119.07,117.6,98.69ZM83.77,131c-5.12,5.62-8.17,12.64-10.53,20.09-1.26,4-3,7.15-7.17,3.39C46.34,136.56,29.66,99,30.42,68.93c.18-7.28,2.86-12.48,10.25-12.9,6.2,1.19,11.55,4.57,16.47,8.58,6.4,5.21,15.21,27.06,21.12,32.94,2.61,2.61,8.75,5.91.87,10.12-.43.24-.63,1-.93,1.57,6,2.9,4.08,9.46,5.88,14.31C85.33,126.93,86.13,128.41,83.77,131Zm43.11,37.37c-.28,5.73-3.59,8.3-8.61,8.6-4.87-.79-7.91-3.7-7.8-9.41s3.2-9.08,8.13-9.05C124,158.55,127.18,162.17,126.88,168.37Z"/><path class="cls-3" d="M216.78,145c7.93-6.57,1.43-10.63-1.81-13.48s-3.35-4.1-1.23-7.78c16.36-28.49,8.31-71.25-3.28-100.58C201.72,1,179.46-3.41,173.82,21c-3.54,15.27-6.78,41.22-10.35,56.8-2.23,9.76-4,19.59-16.52,15-1.15,25.64,7,48.63,16.41,71.24l2.49.89c11.7-1,21.83,2.38,28.88,13.53,3.83,6,7,5.77,10.2-.48-4.24-15.83-1.16-20.65,14.53-22.67C220.11,151.18,212.65,148.37,216.78,145Zm-34.31,10.41c-2.16,1.07-4.72,1.11-7,1.8-1.86.56-3.53,3.71-5.53,1.2-1.76-2.18-1-5.2-.24-7.75a11.66,11.66,0,0,1,2.33-4.28c3.3-3.84,7.56-6.19,12.19-5.46,3,.48,3.92,3.39.17,5-2.15.93-4.86.39-6.58,4a22.84,22.84,0,0,1,3.55,0c3.28.56,8.84-1.68,8.74,3.88C190,158.76,185.09,154.06,182.47,155.36Zm18.65-40.06c-5.64-5.23-11.47-10-18.61-12.71-4.92-1.88-6.69-14.42-2.81-22.31-7.09,1.06-8.67-1.73-6.58-8.07,4.22-12.8,1.9-38.52,9.45-49.47C189.55,12.62,197,13,202.84,24c11.92,22.54,15.6,68.62,5.52,90.5C206.24,119.1,203.9,117.86,201.12,115.3Z"/><path class="cls-5" d="M120.13,279H86.78c-.16-3.43-.18-6.89-.12-10.36,0-4.09-.08-8.19,0-12.28.06-1.87-.62-4.74,1.78-5,1.55-.16,3.73,1,4.82,2.42,2,2.52,3.07,6,5.18,8.39,3.15,3.53,4.88,10.27,11.46,7.48.49-.2,1.51-.14,1.69.19A28.78,28.78,0,0,0,120.13,279Z"/><path class="cls-6" d="M147,92.72c-1.15,25.64,7,48.63,16.41,71.24a38.59,38.59,0,0,0-21.22,3.88c-3.81-25-10.29-48.77-24.54-69.15A48.67,48.67,0,0,1,147,92.72Z"/><path class="cls-7" d="M142.14,167.84A38.59,38.59,0,0,1,163.36,164l2.49.89c5.19,7.53,2.67,14.09-2.41,19.91s-11.41,6.37-17.54,2.36c-5.49-3.59-10-8.26-6.32-16.51C140.43,169.69,141.28,168.76,142.14,167.84Z"/><path class="cls-1" d="M145.15,210.73c-2.1-.59-5-.74-7.31-2.19-3.46-2.2-10-4.56-7.88-9.06,2.35-4.88,5.41,2.41,8.46,3.56,3.5,1.31,8,4.3,10.34,1.39,7.84-9.89,21.88-2.69,28.8-13.89.66-1.07.72-2.57,1.2-3.8.88-2.25,0-6.77,3.35-6,3.68.84,2,5.1,1.42,7.69-.92,4.32-2.61,9.05-6.44,10.63C166.79,203.29,156.23,206.74,145.15,210.73Z"/><path class="cls-1" d="M161.23,236.7c4.78.25,10.18-.13,14.72-4.45,1.42-1.34,3.13-2.66,4.46,0,.87,1.75-.27,3.06-1.36,4.37-4.39,5.26-19.42,8.08-25.1,4.5-.94-.6-2.15-1.8-2.2-2.79-.14-2.31,1.7-2.37,3.22-2.29C156.8,236.14,158.62,236.42,161.23,236.7Z"/><path class="cls-1" d="M84.08,123.55c-1.8-4.85.1-11.41-5.88-14.31.3-.54.5-1.33.93-1.57,7.88-4.21,1.74-7.51-.87-10.12-5.91-5.88-14.72-27.73-21.12-32.94-4.92-4-10.27-7.39-16.47-8.58-7.39.42-10.07,5.62-10.25,12.9-.76,30,15.92,67.63,35.65,85.55,4.12,3.76,5.91.62,7.17-3.39,2.36-7.45,5.41-14.47,10.53-20.09C86.13,128.41,85.33,126.93,84.08,123.55ZM68.84,146.68c-3.16,3.74-6.12-2.31-8.41-4.78C48.5,129,38,97.25,35.16,78.84c-.9-5.76-1.93-12.43,2.84-16.05,4.26-3.23,8.86.88,12.54,3.69,6.54,5,15.36,26.82,21.64,32.23,2.18,1.89,4.73,3.75.87,7-2.35,2-5.88,4.18-4.68,7.94,1.27,4,5.7,0,8.07,2.43C77.61,120,68,125.62,78,128.29,75.05,134.52,73,141.72,68.84,146.68Z"/><path class="cls-1" d="M118.4,177c-5.42-.78-8.82-3.71-8.69-9.41s3.57-9.09,9.06-9.05c6,0,9.55,3.66,9.22,9.86C127.68,174.1,124,176.67,118.4,177Z"/><path class="cls-1" d="M202.84,24c-5.83-11-13.29-11.38-20.27-1.26-7.55,11-5.23,36.67-9.45,49.47-2.09,6.34-.51,9.13,6.58,8.07-3.88,7.89-2.11,20.43,2.81,22.31,7.14,2.74,13,7.48,18.61,12.71,2.78,2.56,5.12,3.8,7.24-.8C218.44,92.62,214.76,46.54,202.84,24Zm3.37,82.84c-1.49,2.67-2.6,3.31-5,1.52-4-3.08-8.18-5.92-12.2-9-.64-.49-3.17-.4-1.48-2.3,6.13-6.88-2.81-6.84-3.84-11.24.77-3.54,5.89-2.16,5.64-5.89-.29-4.46-4.52-4-7.16-4.91s-4.35-1.63-3-5.41c3.66-10.5.88-33.86,6.87-43,4.83-7.42,7.95-7.24,12.52.1C207.28,40.68,214.29,92.41,206.21,106.84Z"/><path class="cls-1" d="M178.71,149.8a28.08,28.08,0,0,1,3.95,0c3.66.61,9.86-1.81,9.74,4.21-.1,5.4-5.54.3-8.46,1.71-2.4,1.16-5.25,1.2-7.85,2-2.06.6-3.92,4-6.16,1.29-2-2.37-1.05-5.64-.26-8.41a12.49,12.49,0,0,1,2.6-4.65c3.67-4.16,8.42-6.71,13.58-5.91,3.39.52,4.37,3.67.19,5.45C183.65,146.5,180.62,145.91,178.71,149.8Z"/><path class="cls-8" d="M76.44,116C77.6,120,68,125.62,78,128.29c-3,6.23-5,13.44-9.16,18.39-3.16,3.75-6.12-2.31-8.41-4.78C48.5,129,38,97.25,35.15,78.83c-.88-5.75-1.92-12.42,2.84-16,4.27-3.23,8.87.88,12.55,3.69,6.54,5,15.36,26.82,21.63,32.23,2.2,1.89,4.74,3.75.88,7-2.35,2-5.88,4.19-4.69,7.94C69.64,117.6,74.07,113.57,76.44,116Z"/><path class="cls-8" d="M183.74,85.82c.77-3.55,5.89-2.15,5.64-5.89-.29-4.45-4.52-4-7.17-4.91s-4.34-1.62-3-5.41c3.66-10.5.88-33.86,6.86-43,4.84-7.41,8-7.24,12.52.09,8.73,14,15.73,65.74,7.65,80.17-1.49,2.67-2.61,3.31-5,1.52-4-3.08-8.18-5.92-12.2-9-.64-.49-3.17-.4-1.48-2.3C193.71,90.18,184.77,90.22,183.74,85.82Z"/><path class="cls-1" d="M59.94,169.08a23.3,23.3,0,0,0-3,19.41,1.51,1.51,0,0,0,2.2.9L67,184.47l-2.21-1.69-4.1,21c-.24,1.23-.6,2.61.07,3.78a2.53,2.53,0,0,0,3.32.9,40.52,40.52,0,0,0,8.48-5.07l-2.2-1.69a27.3,27.3,0,0,0,2.32,21.9,1.45,1.45,0,0,0,1.29.74c2.45-.15,3.24-2.17,4.27-4.06.7-1.28,3-2.44,4-.83s3.65.11,2.59-1.51a5.19,5.19,0,0,0-6.6-1.68,5.57,5.57,0,0,0-2.63,2.51c-.31.56-.91,2.52-1.68,2.57l1.3.75a24.34,24.34,0,0,1-2-19.59c.38-1.18-1.14-2.48-2.2-1.7a51.14,51.14,0,0,1-6.51,4.09l-1,.52c-.39.19-.68.13-.39.49s.16,0,.23-.24a5.67,5.67,0,0,0,.15-.84l.86-4.39,3.3-16.82a1.52,1.52,0,0,0-2.21-1.69l-7.9,4.92,2.2.9a20.39,20.39,0,0,1,2.71-17.1c1.09-1.61-1.51-3.11-2.59-1.52Z"/><path class="cls-1" d="M58.75,174.94a40.29,40.29,0,0,0,3.91,7.51L65,180.64c-.85-1.1-1.67-2.26-2.6-3.3a4.44,4.44,0,0,0-1.85-1.42,1.74,1.74,0,0,0-2.16,1.71,13.55,13.55,0,0,0,.89,4.35,7.32,7.32,0,0,1,.22.82,2.29,2.29,0,0,1,0,.37c0-.15-.11.25,0,.09a4.67,4.67,0,0,1-1.1,1.32l2.56,1.06c-.17-1.6.71-3.16.76-4.83a1.79,1.79,0,0,0-2.23-1.9,3.15,3.15,0,0,0-2,1.88,5.63,5.63,0,0,0-.78,2.75A1.65,1.65,0,0,0,57.89,185a2.31,2.31,0,0,0,1.62-.27c.66-.3,1.32-.79,1.93-1.05a2.43,2.43,0,0,1,.92-.18,4.5,4.5,0,0,1,.64,0s.65.15.35,0l-.54-.54-.06-.14V182c.06-.26.45-.44.1-.26l-.42.22a8.11,8.11,0,0,1-.79.3,1.53,1.53,0,0,0-1,1.84,1.52,1.52,0,0,0,1.85,1.05,5.35,5.35,0,0,0,3-1.75,1.89,1.89,0,0,0,.08-1.87,2,2,0,0,0-1.66-.94,6.29,6.29,0,0,0-3.36.22,10.93,10.93,0,0,0-1.45.73c-.2.12-.41.25-.62.36l-.31.16a.5.5,0,0,1,.21-.05l1.06.44-.07-.09.39.67c.1.73.1.12.19-.17a4.73,4.73,0,0,1,.2-.5,6.25,6.25,0,0,1,.33-.63c.1-.15.12-.17,0-.06a.8.8,0,0,1-.75.11l-.66-.39.08.07-.38-.66c0-.27,0-.28,0,0l0,.37s-.07.32-.07.35c-.1.44-.22.87-.33,1.3a7.88,7.88,0,0,0-.33,2.81,1.52,1.52,0,0,0,2.56,1.06c1.33-1.26,2.25-2.67,1.92-4.59-.13-.77-.46-1.5-.66-2.26a10.45,10.45,0,0,1-.26-1.21c0-.14,0-.28-.06-.43l0-.3c0-.26,0-.28,0-.07l-.38.66.09-.08-1.06.44h.12l-.75-.21A6.55,6.55,0,0,1,61,180.38l1.85,2.38a1.5,1.5,0,0,0,2.36-1.82,36.61,36.61,0,0,1-3.61-6.8,1.55,1.55,0,0,0-1.85-1,1.51,1.51,0,0,0-1,1.85Z"/><path class="cls-1" d="M66.19,187.8c-1,6.07-2,12.3-4.87,17.8a1.5,1.5,0,0,0,2.35,1.82,19,19,0,0,1,2.94-2.5,30.11,30.11,0,0,0,3.14-1.9,3.34,3.34,0,0,0,.76-3.61c-.39-1.5-.83-3-1.24-4.47a1.53,1.53,0,0,0-2.75-.36c-1.31,1.83-4.65,7.91-.6,8.69a2.08,2.08,0,0,0,2.21-1.07A6.53,6.53,0,0,0,69,200a2,2,0,0,0-3.32-1.7,1.5,1.5,0,0,0,2.12,2.12l.12-.12-.66.38.16,0h-.82L66,200.1c0-.39-.08-.46-.16-.21a5.16,5.16,0,0,0-.21.49c-.06.13-.06.25-.16.32l.66-.38-.22.06h.8c.36.05.06.48.32.11a4,4,0,0,0,.2-.74,10.18,10.18,0,0,1,.46-1.24,13.46,13.46,0,0,1,1.41-2.41l-2.74-.36,1,3.78c.07.25.46,1.06.33,1.33a8.81,8.81,0,0,1-1,.47,21.55,21.55,0,0,0-5.23,4l2.36,1.81c3-5.75,4.15-12.16,5.17-18.52a1.54,1.54,0,0,0-1-1.84,1.5,1.5,0,0,0-1.84,1.05Z"/><path class="cls-1" d="M71.34,206.72a10.78,10.78,0,0,0-.32,6.19,48.73,48.73,0,0,0,1.63,6.14c.3,1,.47,2.45,1.44,3,1.38.81,2.34-.55,2.72-1.7.28-.83.31-1.75.63-2.57a2.08,2.08,0,0,1,.3-.54.51.51,0,0,1,.32-.15c-.07,0-.29-.17,0,0v-2.59c-.17.09-.57-.13-.78-.32a5.36,5.36,0,0,1-1-1.51,10.69,10.69,0,0,1-1.56-3.8,1.55,1.55,0,0,0-1.5-1.5,1.51,1.51,0,0,0-1.5,1.5c.31,2.7.74,5.37,1.31,8a1.5,1.5,0,0,0,2.9-.8,73,73,0,0,1-1.21-7.22h-3A15,15,0,0,0,74.14,215c1.18,1.92,3.25,3.26,5.49,2.17a1.52,1.52,0,0,0,0-2.59,3.37,3.37,0,0,0-4.49,1.2,5.83,5.83,0,0,0-.81,2c-.09.39-.15.78-.24,1.16a7.21,7.21,0,0,1-.18.78l1.06-.44h-.13l1.06.44c.36.37,0-.28-.05-.46l-.27-.88-.45-1.45c-.31-1-.62-2.06-.87-3.11a19.26,19.26,0,0,1-.52-3,5.63,5.63,0,0,1,.19-2.55,1.55,1.55,0,0,0-.54-2.06,1.52,1.52,0,0,0-2,.54Z"/><path class="cls-9" d="M62.28,159.82c2.47,2.07,2.57,5.53,1.83,8.46-1,3.83-3,7.27-4,11.12a1.58,1.58,0,0,0,2.29,1.76c1.73-1.12,5-3.3,6.7-1.1a6.3,6.3,0,0,1,1.34,3c0,.63-.13.39-.74.72A3.31,3.31,0,0,0,68.41,185a13.89,13.89,0,0,0-1.19,3.85q-.52,2.21-.9,4.44a64,64,0,0,0-.84,9.38c0,1.47,2.23,2.22,2.9.78a7.89,7.89,0,0,1,7.9-4.49l-1.09-1.92c-1,6.3-2,12.69-.65,19a1.58,1.58,0,0,0,2.61.69,24,24,0,0,1,8.38-5.67,1.57,1.57,0,0,0-.41-3.06c-2.83-.23-5.35,1.18-7.67,2.63l2.29,1.76a21.07,21.07,0,0,0-.56-10,1.57,1.57,0,0,0-3,0,6.47,6.47,0,0,0,.73,4.91,6.5,6.5,0,0,1,.88,2.23c0,.37-.1,1.21-.62,1.26l1.5,2c.61-1.83,2.78-7-1.11-7-3.56.07-2.57,5.08-1.21,6.86a1.58,1.58,0,0,0,2.45.32,4.21,4.21,0,0,0,1.2-3c0-1.31-.64-2.42-1-3.65-.71-2.8,1.06-5.3,1-8s-2.7-3.49-4.91-3.8a12.76,12.76,0,0,0-7.34,1.21L70,197.9a34.09,34.09,0,0,0,3-6.73c.57-1.8,1.85-5,.19-6.53a2.56,2.56,0,0,0-2.53-.56c-1.23.45-1.4,1.41-1.22,2.57.41,2.73.84,5.45,1.27,8.18l2.6-1.52a13.16,13.16,0,0,1-1.38-2c-.27-.48-.88-1.37-.81-1.95l-.46,1.1c-1-.16-1.25,0-.74.36l.27.22a3,3,0,0,0,1,.52,2.89,2.89,0,0,0,2.06-.25A7.3,7.3,0,0,0,76,188c1.45-2.73,2.57-6.24.34-8.89a11.64,11.64,0,0,0-3.44-2.4,11.45,11.45,0,0,1-3.2-3.12c-1.84-2.17-5.12-2.85-7-.37-.79,1.05.33,2.24,1.35,2.35a3.64,3.64,0,0,0,2-.42l-1.89-.25a2.22,2.22,0,0,1,.73.93l.56-2.13-1.12.78c-1.33.94-.55,3.58,1.2,2.85a4,4,0,0,1,3.56,0,1.57,1.57,0,0,0,2.13-2.14,19.8,19.8,0,0,1-1.83-8.54c0-1.24-1.79-2.2-2.66-1.1-1.55,1.94-1.78,4.16-1.71,6.57a1.58,1.58,0,0,0,1.15,1.5,11.56,11.56,0,0,1,5.14,2.5c1.5,1.3,3.7-.84,2.2-2.2s-3.16-2.78-3.71-4.74.11-4-1.12-5.87c-1.11-1.66-3.81-.1-2.69,1.57a5.54,5.54,0,0,1,.51,3,8.54,8.54,0,0,0,.69,3.19,15.86,15.86,0,0,0,4.12,5l2.2-2.2a14.65,14.65,0,0,0-6.52-3.3l1.15,1.5c0-1.43-.16-3.17.79-4.37l-2.66-1.1a23.48,23.48,0,0,0,2.26,10.12l2.13-2.14a6.89,6.89,0,0,0-6-.33l1.2,2.85,1.12-.79a1.61,1.61,0,0,0,.56-2.13,4.22,4.22,0,0,0-1.21-1.56,1.65,1.65,0,0,0-1.89-.24.77.77,0,0,1-.45,0l1.35,2.35c.17-.24.92,0,1.08.06a4,4,0,0,1,1.28,1.26,11,11,0,0,0,3,2.93c1,.64,2.38,1.08,3.2,2,1,1.14.56,2.76,0,4a16.76,16.76,0,0,1-1,2.07,7.62,7.62,0,0,1-.48.77c-.07.08-.67.66-.46.63.19.15.14.09-.14-.18l-.27-.23a2.61,2.61,0,0,0-.94-.51,2.23,2.23,0,0,0-1.89.33c-1.29,1-.7,2.46-.17,3.67a16.19,16.19,0,0,0,2.5,3.9c1.12,1.32,2.82-.16,2.6-1.52l-1.34-8.66-.4,1.52c-.82-.49-1.2-.4-1.14.25l-.09.43c-.09.44-.2.87-.31,1.3-.23.86-.5,1.72-.8,2.56a31.15,31.15,0,0,1-2.33,4.92,1.57,1.57,0,0,0,2.14,2.13,9.45,9.45,0,0,1,5.16-.86,4.82,4.82,0,0,1,2.23.6c.42.4-.13,1.61-.27,2.13a15.67,15.67,0,0,0-.71,5.6,11.5,11.5,0,0,0,.67,2.56c.24.69.72,1.67.11,2.31l2.45.32a4.3,4.3,0,0,1-.78-1.44c-.06-.26,0-.58-.1-.82-.15-.45-1-.93-1.38-.38a6.31,6.31,0,0,0-.45,1.49l-.67,2a1.56,1.56,0,0,0,1.51,2,4.11,4.11,0,0,0,3.75-4,7.13,7.13,0,0,0-.86-3.25c-.52-1.09-1.27-2.17-.88-3.41h-3a17.63,17.63,0,0,1,.55,8.38,1.58,1.58,0,0,0,2.3,1.76c1.87-1.17,3.79-2.38,6.09-2.2l-.42-3.06A27.44,27.44,0,0,0,75,214.57l2.6.69c-1.25-5.74-.29-11.64.65-17.35.12-.74-.19-1.79-1.09-1.91a11,11,0,0,0-11.42,5.92l2.91.79a59.52,59.52,0,0,1,1.21-11.13c.19-.93.41-1.86.65-2.79a6.49,6.49,0,0,1,.64-2.18c.44-.48,1.31-.54,1.8-1.08a3.13,3.13,0,0,0,.75-1.92,9,9,0,0,0-1.1-3.88,6.53,6.53,0,0,0-2.75-3.12c-3-1.57-6.39.21-8.93,1.85l2.29,1.77c1-4.3,3.54-8.15,4.24-12.53.57-3.6,0-7.62-2.92-10.09-1.53-1.28-3.74.92-2.2,2.21Z"/><path class="cls-9" d="M77.29,208l.25.3L77.3,208a7.19,7.19,0,0,1,.92,1.56,1.21,1.21,0,0,0,.4.44,1.18,1.18,0,0,0,.53.28,1.31,1.31,0,0,0,.62,0,1.11,1.11,0,0,0,.58-.19,1.56,1.56,0,0,0,.72-.93l.05-.42a1.52,1.52,0,0,0-.21-.78,8.58,8.58,0,0,0-1.42-2.19,1.11,1.11,0,0,0-.5-.32,1.21,1.21,0,0,0-.6-.14,1.26,1.26,0,0,0-.6.14,1.16,1.16,0,0,0-.5.32,1.59,1.59,0,0,0-.46,1.1l.06.42a1.61,1.61,0,0,0,.4.69Z"/><polyline class="cls-10" points="55.27 279 70.47 279 113.89 279 126.6 279 227.43 279 233.7 279 258.19 279 267.42 279"/><line class="cls-11" x1="2.82" y1="279" x2="303.82" y2="279"/><path class="cls-4" d="M62,163a8.92,8.92,0,0,1,1.13,4.39c-.11,1.47-1,2.85-1.54,4.2A30.38,30.38,0,0,0,59.66,181a1.51,1.51,0,0,0,2.8.76,2.62,2.62,0,0,1,2.42-1.15c.35,0,1-.13,1.24.07s.44,1.28.52,1.61a24.75,24.75,0,0,1,.35,6.2c0,1.55-.55,4.34.93,5.36a5.09,5.09,0,0,0,2.82.4h3c.37-.9.27-1.26-.3-1.05-1.41.24-1.45,2.69,0,2.89s3.2.53,4.6,0,1.83-2.08,1.9-3.47c.17-3.12-1.39-6.36-2.83-9a20.89,20.89,0,0,0-5.69-6.84c-2.27-1.68-5.34-3-8-1.43l2.2,1.69c1.44-3.95,2.69-8,3.75-12.05H66.44c1.4,3.9.48,8.16,1.37,12.18.4,1.77,2.79,1.18,3-.4a25.48,25.48,0,0,0-.05-5.59,1.52,1.52,0,0,0-2.56-1.06,5.9,5.9,0,0,0-2.4,3.74A3.93,3.93,0,0,0,66,176a3.34,3.34,0,0,0,.59.93c.24.26.55.78.68.39l1.85-1.05a9.28,9.28,0,0,0-2.67-.34,1.5,1.5,0,0,0,0,3c2,0,5.38.65,5.92-1.94s-.77-5-1.89-7.13c-.9-1.71-3.48-.2-2.59,1.52q3.22,6.16,6.8,12.13L77.32,182a10.55,10.55,0,0,1-1.57-3.85L74.31,180c1,.14,1.38,4,1.51,4.73.16.93.3,1.87.39,2.82a6.74,6.74,0,0,1,0,2.86l2.51-.66c-2.64-2.51-3.93-5.91-5-9.31a1.5,1.5,0,0,0-2.94.39,32.83,32.83,0,0,0,.77,9.93l2.89-.79C73.41,186,72.71,182,72,178c-.33-1.9-3.19-1.08-2.9.8a83.77,83.77,0,0,1,1,12.75,1.5,1.5,0,0,0,3,0,37.65,37.65,0,0,0-1-7.62c-.28-1.4-2.66-1.46-2.89,0a90.7,90.7,0,0,0-1,10.91,1.51,1.51,0,0,0,1.9,1.44c1-.24,1.49-1.05,2.38-1.48s2.1.4,3,.55l.4-2.95a9.61,9.61,0,0,0-4.78,1.31,6.07,6.07,0,0,0-1.76,1.7c-.43.64-.66,2-1.47,2.19l1.9,1.45c0-.88.29-1.76.39-2.64a16.65,16.65,0,0,0,0-2.91,1.51,1.51,0,0,0-2.95-.4A17.83,17.83,0,0,0,66,199.55a1.51,1.51,0,0,0,2.25,1.3c1.66-1.14,2.86-3.26,4.92-3.66a26.05,26.05,0,0,1,8.17.19l.4-2.94a8.36,8.36,0,0,1-2-.06c-1.89-.32-2.7,2.57-.8,2.89a12,12,0,0,0,2.8.17c1.56-.11,2.18-2.7.4-2.95a32.28,32.28,0,0,0-9.36-.26,6.71,6.71,0,0,0-3.29,1.5c-1,.79-1.72,1.82-2.75,2.52l2.26,1.3a15.28,15.28,0,0,1,1.18-5.62l-3-.4a15.72,15.72,0,0,1,0,2.91,26.25,26.25,0,0,0-.39,2.64,1.53,1.53,0,0,0,1.9,1.45,3.25,3.25,0,0,0,2-1.24c.57-.71.75-1.62,1.3-2.33.9-1.16,2.57-1.47,4-1.53,1.59-.08,2.15-2.65.39-3-1.33-.23-2.57-1-4-.73a3.62,3.62,0,0,0-1.63.71c-.43.33-.83.84-1.36,1l1.9,1.45a83.48,83.48,0,0,1,.93-10.11H69.31a33.31,33.31,0,0,1,.84,6.82h3A89.1,89.1,0,0,0,72,178l-2.9.8c.69,4,1.39,8,2.46,11.93a1.5,1.5,0,0,0,2.89-.79,30.19,30.19,0,0,1-.66-9.14l-2.95.4c1.22,3.89,2.75,7.77,5.77,10.64a1.52,1.52,0,0,0,2.5-.66c.52-1.32.16-3,0-4.35s-.39-2.88-.69-4.29c-.52-2.54-1.2-5.18-4.14-5.57-1-.13-1.62,1.07-1.45,1.9a12.63,12.63,0,0,0,1.87,4.57c1,1.61,3.59.16,2.59-1.51q-3.58-6-6.8-12.14l-2.59,1.52a18.69,18.69,0,0,1,1,2.11c.3.73.31,1.49.54,2.21v.45l.55-.25-1.11,0c-.82,0-1.63,0-2.45,0v3a6.24,6.24,0,0,1,1.87.24,1.55,1.55,0,0,0,1.85-1,2.36,2.36,0,0,0-.11-1.84c-.29-.61-.89-.82-1.23-1.33-.7-1,.71-2.18,1.4-2.74l-2.56-1.06a25.48,25.48,0,0,1,.05,5.59l2.95-.4c-.9-4,0-8.23-1.38-12.18a1.51,1.51,0,0,0-2.89,0q-1.59,6.12-3.75,12.06c-.46,1.26,1.13,2.31,2.2,1.69,1.72-1,4,.6,5.28,1.68A17.52,17.52,0,0,1,73.9,184a25.63,25.63,0,0,1,2.54,5.53c.27.84.89,2.63.43,3.48q-.08.52-.09.21c-.28,0-.57,0-.85,0-.57,0-1.15-.06-1.72-.13V196a2.61,2.61,0,0,0,2.24-2.62c-.1-1.54-1.37-2.17-2.74-2.22-1,0-2,0-3,0a4.24,4.24,0,0,0-1.23,0c-.6-.07-.43.21.52.83l0-.44a15,15,0,0,0,0-2.68c0-.82,0-1.64,0-2.46a23.24,23.24,0,0,0-.44-4.78c-.28-1.27-.71-2.94-1.9-3.67s-3.25-.52-4.57-.19a5,5,0,0,0-3.24,2.4l2.79.76a28.29,28.29,0,0,1,2.56-10.22c1.44-3.2.84-6.13-.63-9.22-.83-1.74-3.41-.22-2.59,1.52Z"/><path class="cls-4" d="M77.78,215.4a15.17,15.17,0,0,1,6.83-.26,8.14,8.14,0,0,0,5.75-.33,33.47,33.47,0,0,1,5.78-2.3,21.76,21.76,0,0,1,6.73-.54c1.92.13,1.91-2.87,0-3A24.68,24.68,0,0,0,90,211.66a6.13,6.13,0,0,1-2.83.93,33,33,0,0,1-3.46-.67,20.59,20.59,0,0,0-6.72.58c-1.88.4-1.08,3.29.8,2.9Z"/><path class="cls-4" d="M103.89,212a1.5,1.5,0,0,0,0-3,1.5,1.5,0,0,0,0,3Z"/><path class="cls-4" d="M69.58,182.39a2.9,2.9,0,0,0-1.25-2.91,3.78,3.78,0,0,0-1.82-.36,10.55,10.55,0,0,0-1.38,0,5.83,5.83,0,0,0-1.84.49,2.59,2.59,0,0,0-.58.34c-.16.12-.31.26-.48.37.21-.14.07-.05-.06,0s-.39.19-.05,0l-.57.24a3.07,3.07,0,0,0-.73.48,4.86,4.86,0,0,0-1,1.28l2.8.76a14.35,14.35,0,0,1-.06-1.61c0-.08,0-.17,0-.25l0,.15a.94.94,0,0,1,.06-.24l-.06.13a.67.67,0,0,1,.18-.3c-.12.14-.12.14,0,0l.12-.13a9.1,9.1,0,0,1,1-1l.14-.11-.06,0,.3-.21c.21-.15.44-.29.66-.42a1.5,1.5,0,1,0-1.51-2.59A10.66,10.66,0,0,0,60.59,179a4,4,0,0,0-1,2.26,10.27,10.27,0,0,0,0,1.92,1.5,1.5,0,0,0,2.8.76c.08-.16.18-.31.27-.46s0,0,0,0l.18-.19c.07-.05.06-.05,0,0s-.09.07,0,0,.18-.12.2-.1l-.1,0,.23-.1a3.29,3.29,0,0,0,.39-.17,3,3,0,0,0,.52-.36l.33-.26c-.15.12-.13.1,0,0l.24-.13s-.29.09,0,0a5.44,5.44,0,0,1,.54-.15s.2,0,.22,0c-.19,0-.23,0-.11,0h.11l.52,0,1.08,0c.17,0-.28-.1,0,0l-.16-.07c.1.07.1.06,0,0s-.26-.35-.17-.16c0-.06-.09-.31-.06-.12s.06.32,0,.07,0,0,0,.07a3.71,3.71,0,0,1,0,.47,1.51,1.51,0,0,0,1.5,1.5,1.54,1.54,0,0,0,1.5-1.5Z"/><path class="cls-4" d="M68.87,202.39a5.08,5.08,0,0,1,.38-.43s.45-.39.23-.22a5.66,5.66,0,0,1,.48-.31l.25-.13h0a11.2,11.2,0,0,1,2.34-.5c.42,0,.85-.07,1.27-.07h.31c-.15,0-.13,0,0,0-.18-.08.29.17.34.2s.47.33.34.23a2.29,2.29,0,0,1,.45.43c-.19-.24.31.34,0,.09,0,.17.06.18,0,0a.87.87,0,0,1,0,.28,1.5,1.5,0,0,0,3,.4,2.55,2.55,0,0,0-2.4-3.15,1.51,1.51,0,0,0-1.5,1.5,1.54,1.54,0,0,0,1.5,1.5,1.19,1.19,0,0,1-.32-.1l-.12-.11c.1.11.11.11,0,0s-.12-.31-.08-.16,0-.24,0-.29l2.94.39a3.84,3.84,0,0,0-1.83-3.27,4.91,4.91,0,0,0-1.57-.86,5.89,5.89,0,0,0-1.92-.11c-2.3.15-4.82.61-6.34,2.52a1.54,1.54,0,0,0,0,2.12,1.52,1.52,0,0,0,2.12,0Z"/><path class="cls-1" d="M228.71,205.31a9.94,9.94,0,0,1-7.76-2.56,4.8,4.8,0,0,1-1.54-3.34c.29-2.35,2-1.93,3.53-1.42a19.44,19.44,0,0,0,3.48,1.21c3.08.4,6.24.69,8.17-2.88,1.26-2.31.58-4.56-.41-6.79-1.59-3.59-4.22-4.73-7.59-4.11-1.79.34-3.55,1-5.35,1.21a2.74,2.74,0,0,1-2.17-1.33,2.42,2.42,0,0,1,1.13-3.36c5-2.31,10.17-3.29,14.9.24,4.51,3.35,5.9,8.67,4.69,14.39C238.47,202.87,233.89,204.74,228.71,205.31Z"/></g></g></svg>